<?xml version="1.0" standalone="no"?>
<!DOCTYPE svg PUBLIC "-//W3C//DTD SVG 1.1//EN" "http://www.w3.org/Graphics/SVG/1.1/DTD/svg11.dtd" >
<svg xmlns="http://www.w3.org/2000/svg">
<metadata>
<json>
<![CDATA[
{
	"fontFamily": "thetis_icon",
	"majorVersion": 1,
	"minorVersion": 0,
	"version": "Version 1.0",
	"fontId": "thetis_icon",
	"psName": "thetis_icon",
	"subFamily": "Regular",
	"fullName": "thetis_icon",
	"description": "Font generated by IcoMoon."
}
]]>
</json>
</metadata>
<defs>
<font id="thetis_icon" horiz-adv-x="1024">
<font-face units-per-em="1024" ascent="960" descent="-64" />
<missing-glyph horiz-adv-x="1024" />
<glyph unicode="&#x20;" horiz-adv-x="512" d="" />
<glyph unicode="&#xe900;" glyph-name="g" data-tags="g" d="M64 493.724h128v-365.724h-128v365.724zM320 585.173h128v-457.173h-128v457.173zM576 676.551h128v-548.551h-128v548.551zM832 768h128v-640h-128v640z" />
<glyph unicode="&#xe901;" glyph-name="add" data-tags="add" d="M574.222 479.076h-31.076v416.924h-62.222v-416.924h-416.924v-62.222h416.924v-416.853h62.222v416.853h416.853v62.222h-385.778z" />
<glyph unicode="&#xe902;" glyph-name="alert" data-tags="alert" d="M512 896c-247.424 0-448-200.576-448-448v0 0c0-247.424 200.576-448 448-448s448 200.576 448 448v0 0c0 247.424-200.576 448-448 448v0zM512 64c-212.077 0-384 171.923-384 384s171.923 384 384 384c212.077 0 384-171.923 384-384v0c-0.243-211.98-172.021-383.758-383.977-384h-0.023zM459.093 260.693c0 32.142 23.040 55.751 52.907 55.751s52.907-23.609 52.907-55.751c0.045-0.82 0.071-1.779 0.071-2.744 0-29.259-23.719-52.978-52.978-52.978s-52.978 23.719-52.978 52.978c0 0.965 0.026 1.924 0.077 2.877l-0.006-0.133zM473.316 609.707l-2.56 80.782h82.489l-2.56-80.782-11.378-242.631h-54.613z" />
<glyph unicode="&#xe903;" glyph-name="arrival_time" data-tags="arrival_time" d="M576 810.667h128v-64h-128v64zM608 597.333v-223.289l3.556-3.058 108.302-93.013 41.671 48.569-89.529 76.942v193.849h-64zM382.080 481.92h-318.080v-67.84h318.080l-110.080-110.080 48-48 192 192-192 192-48-48 110.080-110.080zM640 725.333c-0.094 0-0.206 0-0.317 0-93.569 0-177.733-40.267-236.109-104.418l-0.231-0.258 45.44-45.44c47.114 52.932 115.434 86.11 191.503 86.11 141.385 0 256-114.615 256-256s-114.615-256-256-256c-97.687 0-182.594 54.715-225.747 135.17l-0.671 1.369-47.076-47.076c57.159-92.641 158.101-153.458 273.247-153.458 176.731 0 320 143.269 320 320s-143.269 320-320 320c-0.013 0-0.027 0-0.040 0h0.002z" />
<glyph unicode="&#xe904;" glyph-name="arrow_down_long" data-tags="arrow_down_long" d="M272.498 235.236l46.933 46.933 159.36-159.36v777.458h66.418v-777.458l159.36 159.36 46.933-46.933-239.502-239.502-239.502 239.502z" />
<glyph unicode="&#xe905;" glyph-name="arrow_down" data-tags="arrow_down" d="M58.951 651.022l47.004 47.004 406.044-406.116 406.044 406.116 47.004-47.004-453.049-453.049-453.049 453.049z" />
<glyph unicode="&#xe906;" glyph-name="arrow_left_long" data-tags="arrow_left_long" d="M299.236 687.502l46.933-46.933-159.36-159.36h777.458v-66.418h-777.458l159.36-159.36-46.933-46.933-239.502 239.502 239.502 239.502z" />
<glyph unicode="&#xe907;" glyph-name="arrow_left" data-tags="arrow_left" d="M715.022 901.049l47.004-47.004-406.116-406.044 406.116-406.044-47.004-47.004-453.049 453.049 453.049 453.049z" />
<glyph unicode="&#xe908;" glyph-name="arrow_right_long" data-tags="arrow_right_long" d="M725.547 687.502l-47.004-46.933 159.36-159.36h-777.458v-66.418h777.458l-159.36-159.36 47.004-46.933 239.502 239.502-239.502 239.502z" />
<glyph unicode="&#xe909;" glyph-name="arrow_right" data-tags="arrow_right" d="M308.978 901.049l-47.004-47.004 406.116-406.044-406.116-406.044 47.004-47.004 453.049 453.049-453.049 453.049z" />
<glyph unicode="&#xe90a;" glyph-name="arrow_up_long" data-tags="arrow_up_long" d="M272.498 660.764l46.933-46.933 159.36 159.36v-777.458h66.418v777.458l159.36-159.36 46.933 46.933-239.502 239.502-239.502-239.502z" />
<glyph unicode="&#xe90b;" glyph-name="arrow_up" data-tags="arrow_up" d="M58.951 244.978l47.004-47.004 406.044 406.116 406.044-406.116 47.004 47.004-453.049 453.049-453.049-453.049z" />
<glyph unicode="&#xe90c;" glyph-name="arrows" data-tags="arrows" d="M914.773 493.227l-135.822 135.822-45.227-45.298 103.751-103.751h-293.476v293.476l103.751-103.751 45.298 45.227-181.049 181.049-181.049-181.049 45.298-45.227 103.751 103.751v-293.476h-293.476l103.751 103.751-45.227 45.298-181.049-181.049 181.049-181.049 45.227 45.298-103.751 103.751h293.476v-293.476l-103.751 103.751-45.298-45.227 181.049-181.049 181.049 181.049-45.298 45.227-103.751-103.751v293.476h293.476l-103.751-103.751 45.227-45.298 181.049 181.049-45.227 45.227z" />
<glyph unicode="&#xe90d;" glyph-name="ask_info" data-tags="ask_info" d="M512 896c-247.396-0.037-447.936-200.599-447.936-448 0-74.251 18.064-144.284 50.036-205.942l-1.176 2.493-48.924-244.551 244.551 48.924c59.198-30.837 129.274-48.924 203.575-48.924 247.424 0 448 200.576 448 448s-200.576 448-448 448c-0.044 0-0.089 0-0.133 0h0.007zM512 71.111c-0.257-0.001-0.561-0.001-0.865-0.001-62.151 0-120.753 15.199-172.29 42.082l2.062-0.979-22.044 11.307-24.249-4.907-139.947-27.947 27.947 139.947 4.907 24.249-11.307 22.044c-25.904 49.475-41.103 108.077-41.103 170.228 0 0.304 0 0.608 0.001 0.912v-0.047c0 208.15 168.739 376.889 376.889 376.889s376.889-168.739 376.889-376.889c0-208.15-168.739-376.889-376.889-376.889v0zM576 640c0-35.346-28.654-64-64-64s-64 28.654-64 64c0 35.346 28.654 64 64 64s64-28.654 64-64zM448 512h128v-320h-128v320z" />
<glyph unicode="&#xe90e;" glyph-name="audio" data-tags="audio" d="M489.387 547.556c25.501-25.601 41.266-60.915 41.266-99.911s-15.766-74.31-41.271-99.916l0.005 0.005 45.227-45.227c37.1 37.164 60.042 88.472 60.042 145.138s-22.942 107.973-60.045 145.141l0.003-0.003zM657.138 715.662l-45.227-45.298c56.895-56.914 92.084-135.53 92.084-222.364s-35.189-165.451-92.085-222.366l0.001 0.001 45.227-45.298c68.502 68.5 110.872 163.133 110.872 267.662s-42.37 199.162-110.872 267.662v0zM779.662 838.187l-45.298-45.298c88.161-88.312 142.679-210.234 142.679-344.889s-54.518-256.577-142.686-344.896l0.007 0.007 45.298-45.298c99.683 99.937 161.321 237.864 161.321 390.187s-61.638 290.249-161.332 390.198l0.011-0.011zM64 576v-256h128l192-128v512l-192-128zM227.556 522.738l92.444 61.653v-272.782l-108.658 72.391h-83.342v128h83.342z" />
<glyph unicode="&#xe90f;" glyph-name="basegrid_1" data-tags="basegrid_1" d="M896 768h-832v-640h896v640zM128 704h227.556v-224h-227.556zM896 192h-768v224h768zM896 480h-476.444v224h476.444z" />
<glyph unicode="&#xe910;" glyph-name="basegrid_1big" data-tags="basegrid_1big" d="M896 768h-832v-640h896v640zM128 704h227.556v-320h-227.556zM896 192h-768v128h768zM896 384h-476.444v320h476.444z" />
<glyph unicode="&#xe911;" glyph-name="basegrid_2" data-tags="basegrid_2" d="M896 768h-832v-640h896v640zM128 192v512h476.444v-512zM896 192h-227.556v512h227.556z" />
<glyph unicode="&#xe912;" glyph-name="basegrid_3" data-tags="basegrid_3" d="M896 768h-832v-640h896v640zM128 192v512h227.556v-512zM896 192h-476.444v512h476.444z" />
<glyph unicode="&#xe913;" glyph-name="basegrid_4" data-tags="basegrid_4" d="M896 768h-832v-640h896v640zM896 192h-768v224h768zM896 480h-768v224h768z" />
<glyph unicode="&#xe914;" glyph-name="basegrid_4big" data-tags="basegrid_4big" d="M896 768h-832v-640h896v640zM896 192h-768v128h768zM896 384h-768v320h768z" />
<glyph unicode="&#xe915;" glyph-name="basegrid_5" data-tags="basegrid_5" d="M896 768h-832v-640h896v640zM896 192h-768v512h768z" />
<glyph unicode="&#xe916;" glyph-name="basegrid_6" data-tags="basegrid_6" d="M896 768h-832v-640h896v640zM128 192v224h227.556v-224zM896 192h-476.444v224h476.444zM896 480h-768v224h768z" />
<glyph unicode="&#xe917;" glyph-name="basegrid_6big" data-tags="basegrid_6big" d="M896 768h-832v-640h896v640zM128 192v128h227.556v-128zM896 192h-476.444v128h476.444zM896 384h-768v320h768z" />
<glyph unicode="&#xe918;" glyph-name="basegrid_7" data-tags="basegrid_7" d="M896 768h-832v-640h896v640zM128 192v224h476.444v-224zM896 192h-227.556v224h227.556zM896 480h-768v224h768z" />
<glyph unicode="&#xe919;" glyph-name="basegrid_7big" data-tags="basegrid_7big" d="M896 768h-832v-640h896v640zM128 192v128h476.444v-128zM896 192h-227.556v128h227.556zM896 384h-768v320h768z" />
<glyph unicode="&#xe91a;" glyph-name="basegrid_8" data-tags="basegrid_8" d="M896 768h-832v-640h896v640zM128 704h476.444v-224h-476.444zM896 192h-768v224h768zM896 480h-227.556v224h227.556z" />
<glyph unicode="&#xe91b;" glyph-name="basegrid_8big" data-tags="basegrid_8big" d="M896 768h-832v-640h896v640zM128 704h476.444v-320h-476.444zM896 192h-768v128h768zM896 384h-227.556v320h227.556z" />
<glyph unicode="&#xe91c;" glyph-name="basegrid_9" data-tags="basegrid_9" d="M896 768h-832v-640h896v640zM128 704h476.444v-224h-476.444zM128 192v224h476.444v-224zM896 192h-227.556v224h227.556zM896 480h-227.556v224h227.556z" />
<glyph unicode="&#xe91d;" glyph-name="basegrid_9big" data-tags="basegrid_9big" d="M896 768h-832v-640h896v640zM128 704h476.444v-320h-476.444zM128 192v128h476.444v-128zM896 192h-227.556v128h227.556zM896 384h-227.556v320h227.556z" />
<glyph unicode="&#xe91e;" glyph-name="basegrid_10" data-tags="basegrid_10" d="M896 768h-832v-640h896v640zM128 704h227.556v-224h-227.556zM128 192v224h227.556v-224zM896 192h-476.444v224h476.444zM896 480h-476.444v224h476.444z" />
<glyph unicode="&#xe91f;" glyph-name="basegrid_10big" data-tags="basegrid_10big" d="M896 768h-832v-640h896v640zM128 704h227.556v-320h-227.556zM128 192v128h227.556v-128zM896 192h-476.444v128h476.444zM896 384h-476.444v320h476.444z" />
<glyph unicode="&#xe920;" glyph-name="bell" data-tags="bell" d="M512 760.889l58.667-8.391c42.667-6.116 75.307-20.48 96-42.667 17.991-19.413 20.053-35.058 21.333-93.511-0.024-2.206-0.037-4.813-0.037-7.424 0-77.051 11.684-151.373 33.378-221.291l-1.412 5.284c15.552-50.874 34.168-94.686 56.713-136.048l-1.887 3.781c5.056-8.823 9.851-19.168 13.769-29.935l0.453-1.425s0-1.067-0.569-2.418c-7.538-25.6-61.013-59.307-163.556-76.871l-36.764-6.258-15.716-33.849c-10.803-23.029-33.795-38.691-60.444-38.691s-49.641 15.662-60.273 38.284l-0.172 0.407-15.716 33.849-36.764 6.258c-102.471 17.564-155.947 51.271-163.556 76.871-0.356 1.351-0.498 2.133-0.569 2.418 4.371 12.191 9.166 22.537 14.752 32.374l-0.53-1.014c20.658 37.58 39.274 81.392 53.461 127.152l1.366 5.114c20.281 64.634 31.966 138.956 31.966 216.008 0 2.61-0.013 5.217-0.040 7.821l0.003-0.397c0.996 58.453 3.058 74.098 21.333 93.511 20.693 22.258 52.978 36.622 96 42.667l58.809 8.391zM512 896c-38.056 0-68.907-30.851-68.907-68.907v0c0-1.422 0-2.773 0-4.196-44.942-6.4-99.058-22.684-138.098-64.711-71.893-77.653-10.951-154.951-68.693-344.676-39.822-130.916-85.333-150.4-68.907-206.72 21.333-72.32 121.884-110.222 219.662-127.004 22.421-47.486 69.913-79.756 124.942-79.756s102.522 32.27 124.586 78.919l0.356 0.838c97.778 16.782 198.471 54.684 219.662 127.004 16.498 56.32-29.084 75.804-68.907 206.72-57.742 189.724 3.2 267.022-68.907 344.676-39.040 42.027-93.156 58.311-138.098 64.711 0 1.422 0 2.773 0 4.196 0 0 0 0 0 0 0 37.981-30.729 68.785-68.682 68.906h-0.012z" />
<glyph unicode="&#xe921;" glyph-name="binocular" data-tags="binocular" d="M855.253 661.333v234.667h-267.591v-254.72c-22.416 8.2-48.296 12.943-75.283 12.943-0.133 0-0.267 0-0.4 0h0.021c-27.23-0.081-53.328-4.815-77.577-13.448l1.63 0.506v254.72h-267.307v-234.667l-81.493-314.382v-346.951h349.084v430.649c22.241 10.227 48.255 16.191 75.662 16.191s53.422-5.963 76.816-16.664l-1.154 0.473v-430.649h349.084v346.951zM878.578 339.698v-164.978h-232.747v558.364h151.253v-79.36zM797.084 837.831v-46.578h-151.253v46.578zM378.169 837.831v-46.578h-151.253v46.578zM226.916 653.724v79.36h151.253v-570.169h-232.747v176.64zM145.422 58.169v46.578h232.747v-46.578zM513.778 504.889c-0.614 0.006-1.34 0.009-2.067 0.009-26.948 0-52.869-4.401-77.082-12.524l1.709 0.497v85.333c21.603 11.166 47.153 17.713 74.233 17.713 0.502 0 1.004-0.002 1.506-0.007l-0.077 0.001c0.352 0.003 0.769 0.004 1.186 0.004 27.090 0 52.651-6.546 75.187-18.143l-0.924 0.432v-85.333c-21.969 7.468-47.28 11.854-73.593 12.017h-0.078zM645.831 58.027v58.169h232.747v-58.169z" />
<glyph unicode="&#xe922;" glyph-name="boat" data-tags="boat" d="M941.013 402.702l-141.013 47.004v190.293h96v128l-128 64h-512l-128-64v-128h96v-190.293l-141.013-47.004 126.649-255.36c-39.949-14.211-74.252-35.327-103.153-62.178l0.184 0.169 42.667-47.644c35.129 31.502 72.604 50.418 111.431 56.178 46.080 7.111 74.951-7.111 111.502-25.6s77.724-38.4 139.733-38.4 103.324 20.551 139.733 38.756 65.351 32.498 111.502 25.6c38.827-5.76 76.302-24.676 111.431-56.178l42.667 47.644c-28.733 26.549-63.036 47.549-100.911 61.015l-2.058 0.638zM192 704v24.462l79.076 39.538h481.849l79.076-39.538v-24.462h-640zM288 640h448v-168.96l-224 74.667-224-74.667zM623.218 125.867c-33.067-16.427-64-32-111.218-32s-78.222 15.573-111.218 32c-34.276 17.067-72.462 36.124-125.867 33.92l-101.902 205.511 306.987 102.329v-275.627h64v275.627l306.987-102.329-101.902-205.511c-53.333 2.204-91.591-16.853-125.867-33.92z" />
<glyph unicode="&#xe923;" glyph-name="books" data-tags="books" d="M64 90.738h210.844v-76.16h-210.844v76.16zM64 149.333h210.844v708.622h-210.844zM116.693 800.284h105.458v-105.387h-105.458zM736.619 86.966l203.679 54.499 19.686-73.572-203.679-54.499-19.686 73.572zM742.044 882.56l-203.662-54.471 183.111-684.516 203.662 54.471zM631.396 684.16l-26.951 101.831 101.831 27.307 26.951-102.187zM327.538 90.738h210.844v-76.16h-210.844v76.16zM327.538 857.956v-708.622h210.844v708.622zM485.689 694.898h-105.458v105.387h105.458z" />
<glyph unicode="&#xe924;" glyph-name="broke" data-tags="broke" d="M64 256l320-64-256 192-64-128zM128 0l256 128h-320l64-128zM899.627 549.333l63.787 5.618-10.027 12.444-85.831 107.591 85.831 7.68v64l-517.547-45.227-5.618 64 523.164 45.227v64l-527.929-45.582c-32.859-2.966-58.412-30.376-58.412-63.756 0-1.964 0.088-3.907 0.262-5.825l-0.018 0.247 5.547-64 5.618-64c-32.97-2.847-58.654-30.312-58.654-63.776 0-1.781 0.073-3.544 0.215-5.288l-0.015 0.229 16.782-191.289 64 5.618 5.618-64 5.547-64 5.618-64 5.547-64 2.773-31.858 2.844-31.858c3.287-32.555 30.548-57.753 63.694-57.753 1.885 0 3.751 0.081 5.594 0.241l-0.24-0.017 64 5.618c32.859 2.966 58.412 30.376 58.412 63.756 0 1.964-0.088 3.907-0.262 5.825l0.018-0.247 333.511 29.156v64l-467.058-40.818-5.618 64 64 5.618-5.618 64-64-5.547-5.618 64 483.556 42.667v64l-488.889-42.667-22.044 254.436 106.24 9.316 96.213-120.107 64 5.618-96.427 120.036 191.36 16.782zM608.711 202.667l344.676 30.151v64.284l-350.222-30.649 5.547-63.787z" />
<glyph unicode="&#xe925;" glyph-name="bus_back" data-tags="bus_back" d="M501.333 628.551v64c-0.029 16.157-12.497 29.393-28.337 30.642l-0.107 0.007v102.827c0 17.045-13.817 30.862-30.862 30.862v0h-9.671c-5.535 8.597-15.053 14.211-25.883 14.222h-194.277c-10.832-0.011-20.349-5.626-25.811-14.101l-0.073-0.121h-2.56c-17.045 0-30.862-13.817-30.862-30.862v0-102.471c-15.947-1.256-28.416-14.492-28.444-30.646v-64.003c0-0.002 0-0.005 0-0.008 0-16.151 12.493-29.384 28.343-30.563l0.102-0.006v-261.476h-1.138c0 0 0 0-0.001 0-17.045 0-30.862-13.817-30.862-30.862 0-0.075 0-0.15 0.001-0.225v0.011-64c0-0.021 0-0.046 0-0.071 0-17.045 13.817-30.862 30.862-30.862 0 0 0 0 0 0h1.138v-9.671c-15.958-1.221-28.444-14.47-28.444-30.636 0-0.005 0-0.009 0-0.014v0.001-64c0.029-16.157 12.497-29.393 28.337-30.642l0.107-0.007v-19.698c0-17.045 13.817-30.862 30.862-30.862v0h258.276c17.045 0 30.862 13.817 30.862 30.862v0 19.698c15.947 1.256 28.416 14.492 28.444 30.646v64.003c0 0.004 0 0.009 0 0.013 0 16.165-12.486 29.414-28.34 30.629l-0.104 0.006v10.311c14.276 2.919 24.867 15.366 24.889 30.291v64.002c-0.022 14.927-10.613 27.374-24.689 30.259l-0.199 0.034v261.902c15.951 1.185 28.444 14.418 28.444 30.57 0 0.003 0 0.006 0 0.009v0zM769.92 289.92v446.080h-67.84v-446.080l-110.080 110.080-48-48 192-192 192 192-48 48-110.080-110.080z" />
<glyph unicode="&#xe926;" glyph-name="bus_line" data-tags="bus_line" d="M608 448c-0.025 41.526-26.413 76.883-63.332 90.242l-0.668 0.211v107.093c37.593 13.558 63.983 48.924 63.983 90.453s-26.39 76.895-63.315 90.242l-0.668 0.211v69.547h-64v-69.547c-37.593-13.558-63.983-48.924-63.983-90.453s26.39-76.895 63.315-90.242l0.668-0.211v-107.093c-37.593-13.558-63.983-48.924-63.983-90.453s26.39-76.895 63.315-90.242l0.668-0.211v-107.093c-37.593-13.558-63.983-48.924-63.983-90.453s26.39-76.895 63.315-90.242l0.668-0.211v-69.547h64v69.547c37.593 13.558 63.983 48.924 63.983 90.453s-26.39 76.895-63.315 90.242l-0.668 0.211v107.093c37.587 13.571 63.975 48.927 64 90.45v0.003zM512 768c17.673 0 32-14.327 32-32s-14.327-32-32-32c-17.673 0-32 14.327-32 32v0c0.040 17.657 14.343 31.96 31.996 32h0.004zM512 128c-17.673 0-32 14.327-32 32s14.327 32 32 32c17.673 0 32-14.327 32-32v0c-0.040-17.657-14.343-31.96-31.996-32h-0.004zM512 416c-17.673 0-32 14.327-32 32s14.327 32 32 32c17.673 0 32-14.327 32-32v0c-0.040-17.657-14.343-31.96-31.996-32h-0.004z" />
<glyph unicode="&#xe927;" glyph-name="bus" data-tags="bus" d="M896 672v128c0 35.346-28.654 64-64 64v0h-640c-35.346 0-64-28.654-64-64v0-128c-35.346 0-64-28.654-64-64v0-192h64v-320c0-35.346 28.654-64 64-64v0h64c35.346 0 64 28.654 64 64v0h384c0-35.346 28.654-64 64-64v0h64c35.346 0 64 28.654 64 64v0 320h64v192c0 35.346-28.654 64-64 64v0zM832 288h-64v-64h64v-64h-640v64h64v64h-64v64h640zM832 416h-640v256h106.667l85.333-128h64l-85.333 128h192l85.333-128h64l-85.333 128h213.333zM832 736h-640v64h640zM320 288h384v-64h-384v64z" />
<glyph unicode="&#xe928;" glyph-name="calendar" data-tags="calendar" d="M864 768h-64v64h-64v-64h-448v64h-64v-64h-128v-704h832v704zM864 128h-704v448h704zM864 640h-704v64h704zM608 512h64v-64h-64v64zM736 512h64v-64h-64v64zM224 384h64v-64h-64v64zM352 384h64v-64h-64v64zM480 384h64v-64h-64v64zM608 384h64v-64h-64v64zM736 384h64v-64h-64v64zM224 256h64v-64h-64v64zM352 256h64v-64h-64v64zM480 256h64v-64h-64v64zM608 256h64v-64h-64v64zM736 256h64v-64h-64v64z" />
<glyph unicode="&#xe929;" glyph-name="call" data-tags="call" d="M779.876 0c-137.813 0-347.52 74.382-494.507 221.369-151.609 151.538-225.991 369.92-221.369 507.307 2.204 61.511 19.84 108.373 51.2 135.538v0c54.116 46.791 146.062 36.693 205.227 3.342 76.444-42.667 121.884-137.316 99.129-206.222-12.302-37.333-39.253-53.049-58.88-64.498-14.791-8.604-23.396-14.222-27.876-23.964-16.924-37.902 27.804-124.018 104.036-200.249s162.276-120.889 200.178-103.964c9.956 4.409 15.36 13.013 23.964 27.876 11.449 19.627 27.164 46.578 64.498 58.88 68.764 22.684 163.556-22.684 206.222-99.129 33.28-59.164 43.378-151.111-3.413-205.013-27.164-31.36-74.027-49.067-135.538-51.2-4.196-0.071-8.533-0.071-12.871-0.071zM210.987 837.333c-22.542 0-43.378-5.191-57.316-17.351v0c-18.489-16-29.511-49.209-31.076-93.369-4.124-121.671 65.92-325.618 204.516-463.858s342.4-208.427 463.858-204.018c44.16 1.564 77.369 12.587 93.369 31.076 26.951 31.004 19.982 96.284-3.413 137.884-28.444 50.916-95.004 86.044-136.747 72.32-15.502-5.191-21.76-14.791-32.213-32.782s-23.040-39.538-50.702-51.911c-76.516-33.991-187.449 37.689-265.884 116.053s-150.044 189.298-116.053 265.529c12.373 27.662 34.276 40.462 51.911 50.702s27.591 16.64 32.711 32.213c13.796 41.671-21.333 108.16-72.249 136.747-23.283 12.869-51.006 20.534-80.499 20.764h-0.070z" />
<glyph unicode="&#xe92a;" glyph-name="car_crash" data-tags="car_crash" d="M359.396 843.307c0 25.529-16.853 46.151-37.689 46.151l-106.027 6.542-106.027-6.542c-20.836 0-37.689-20.622-37.689-46.151q-3.271-64-5.333-129.991c-5.049-169.316-2.56-330.453 5.333-482.276 0-25.458 16.853-46.151 37.689-46.151h212.053c20.836 0 37.689 20.693 37.689 46.151 7.822 151.822 10.382 312.889 5.333 482.276q-2.062 65.991-5.333 129.991zM215.68 693.973c41.243-0.003 81.928-2.379 121.929-7.001l-4.88 0.458-21.333-71.751c-28.787 4.164-62.027 6.542-95.822 6.542s-67.035-2.378-99.561-6.976l3.738 0.433-21.333 71.751c34.7 4.031 74.905 6.33 115.647 6.33 0.568 0 1.136 0 1.705-0.001h-0.089zM98.56 302.293l21.333 43.378h191.573l21.333-43.378zM953.529 162.204c-64.64 137.6-138.453 280.818-222.791 428.018q-32.853 56.889-65.991 111.858c-12.018 22.542-36.622 32.782-54.969 22.969l-96.569-44.231-90.453-55.751c-18.347-9.813-23.467-36.053-11.449-58.524q27.164-57.884 56.889-117.12c75.093-151.751 153.316-292.978 231.822-422.756 12.018-22.471 36.693-32.782 55.040-22.969l187.022 100.053c18.347 10.027 23.467 35.982 11.449 58.453zM560.996 388.267l-52.622 53.191c59.444 41.509 127.337 78.577 199.211 107.905l7.011 2.531 15.076-73.316c-34.664-12.908-63.516-26.169-91.243-41.238l3.706 1.843c-31.376-16.99-57.899-33.858-83.172-52.334l2.035 1.418zM689.778 102.044l-14.933 73.316 168.96 90.382 52.622-53.262zM412.871 253.511l62.649 13.156-70.684 181.333 8.036-194.489zM413.938 896l-10.027-194.418 72.533 180.622-62.507 13.796zM596.764 809.387l-46.009 44.516-110.578-160.142 156.587 115.627z" />
<glyph unicode="&#xe92b;" glyph-name="check" data-tags="check" d="M369.351 117.476l-307.84 307.911 45.227 45.227 262.613-262.613 547.911 547.911 45.227-45.298-593.138-593.138z" />
<glyph unicode="&#xe92c;" glyph-name="circle_alt" data-tags="circle_alt" d="M512 832c212.077 0 384-171.923 384-384s-171.923-384-384-384c-212.077 0-384 171.923-384 384v0c0.243 211.98 172.021 383.758 383.977 384h0.023zM512 896c-247.424 0-448-200.576-448-448s200.576-448 448-448c247.424 0 448 200.576 448 448v0c0 247.424-200.576 448-448 448v0z" />
<glyph unicode="&#xe92d;" glyph-name="circle_check" data-tags="circle_check" d="M512 832c212.077 0 384-171.923 384-384s-171.923-384-384-384c-212.077 0-384 171.923-384 384v0c0.243 211.98 172.021 383.758 383.977 384h0.023zM512 896c-247.424 0-448-200.576-448-448s200.576-448 448-448c247.424 0 448 200.576 448 448v0c0 247.424-200.576 448-448 448v0zM512 704c-141.385 0-256-114.615-256-256s114.615-256 256-256c141.385 0 256 114.615 256 256v0c0 141.385-114.615 256-256 256v0z" />
<glyph unicode="&#xe92e;" glyph-name="circle" data-tags="circle" d="M960 448c0-247.424-200.576-448-448-448s-448 200.576-448 448c0 247.424 200.576 448 448 448s448-200.576 448-448z" />
<glyph unicode="&#xe92f;" glyph-name="clock" data-tags="clock" d="M544 651.307h-64v-269.227l137.387-137.387 45.227 45.227-118.613 118.613v242.773zM512 782.222c-212.077 0-384-171.923-384-384s171.923-384 384-384c212.077 0 384 171.923 384 384v0c0 212.077-171.923 384-384 384v0zM512 78.222c-176.731 0-320 143.269-320 320s143.269 320 320 320c176.731 0 320-143.269 320-320v0c-0.202-176.65-143.351-319.798-319.981-320h-0.019zM384 881.778h256v-64h-256v64zM767.34 744.023l45.255 45.255 90.51-90.51-45.255-45.255-90.51 90.51zM120.252 698.792l90.51 90.51 45.255-45.255-90.51-90.51-45.255 45.255z" />
<glyph unicode="&#xe930;" glyph-name="close" data-tags="close" d="M851.413 742.187l-45.227 45.227-294.187-294.187-294.187 294.187-45.227-45.227 294.187-294.187-294.187-294.187 45.227-45.227 294.187 294.187 294.187-294.187 45.227 45.227-294.187 294.187 294.187 294.187z" />
<glyph unicode="&#xe931;" glyph-name="cogs" data-tags="cogs" d="M904.676 216.889c0 4.622 0 9.102-0.569 13.582l55.893 32.284-72.32 125.227-55.68-32.427c-6.757 4.772-14.472 9.318-22.554 13.224l-0.984 0.429v64.569h-144.782v-64.498c-9.119-4.351-16.881-8.922-24.204-14.074l0.524 0.349-55.822 32.284-72.178-125.084 55.893-32.284c0-4.48-0.569-8.96-0.569-13.582s0-9.102 0.569-13.582l-55.893-32.213 72.32-125.227 55.68 32.356c6.741-4.728 14.453-9.273 22.52-13.205l1.018-0.448v-64.569h144.64v64.427c9.19 4.413 16.996 9.006 24.379 14.164l-0.557-0.368 55.822-32.213 72.178 125.084-55.893 32.213c0.356 4.48 0.569 9.031 0.569 13.582zM640 224c0 53.019 42.981 96 96 96s96-42.981 96-96c0-53.019-42.981-96-96-96v0c-52.987 0.081-95.919 43.013-96 95.992v0.008zM463.36 413.653l1.209 0.711c5.049 2.916 9.884 6.044 14.649 9.316l74.169-42.667 96 166.258-74.169 42.951c0 2.844 0.427 5.689 0.569 8.533s0 6.329 0 9.458 0 6.329 0 9.458 0 5.689-0.569 8.533l74.169 42.667-96 166.258-74.169-42.667c-4.693 3.271-9.6 6.4-14.649 9.316l-1.209 0.711c-5.049 2.844-10.098 5.547-15.36 8.036v0 85.476h-192v-85.333c-5.262-2.489-10.311-5.191-15.36-8.036l-1.209-0.711c-5.049-2.916-9.956-6.044-14.649-9.316l-74.169 42.667-96-166.4 74.169-42.667c0-2.844-0.427-5.689-0.569-8.533s0-6.329 0-9.458 0-6.329 0-9.458 0-5.689 0.569-8.533l-74.169-42.667 96-166.258 74.169 42.667c4.764-3.271 9.6-6.4 14.649-9.316l1.209-0.711c5.049-2.844 10.098-5.547 15.36-8.036v0-85.902h192v85.333c5.262 2.773 10.311 5.476 15.36 8.32zM423.822 486.542c-0.829-0.576-1.783-1.143-2.778-1.644l-0.138-0.063c-2.489-1.422-4.978-2.773-7.111-3.982-17.953-8.883-39.089-14.081-61.44-14.081s-43.487 5.197-62.268 14.449l0.828-0.369c-2.489 1.209-4.978 2.56-7.111 3.982-1.132 0.563-2.087 1.131-2.996 1.759l0.080-0.052c-2.56 1.493-5.049 3.058-7.538 4.693-33.756 22.889-56.905 59.245-61.734 101.176l-0.061 0.655v3.556c0 2.062 0 3.982-0.427 5.831s0 3.698 0 5.547 0 3.698 0 5.547 0 3.769 0.427 5.831v3.556c4.716 42.48 27.608 78.816 60.606 101.52l0.478 0.311c2.489 1.636 4.978 3.2 7.538 4.693 0.829 0.576 1.783 1.143 2.778 1.644l0.138 0.063c2.489 1.422 4.978 2.773 7.111 3.982 17.953 8.883 39.089 14.081 61.44 14.081s43.487-5.197 62.268-14.449l-0.828 0.369c2.489-1.209 4.978-2.56 7.111-3.982 1.132-0.563 2.087-1.131 2.996-1.759l-0.080 0.052c2.56-1.493 5.049-3.058 7.538-4.693 33.756-22.889 56.905-59.245 61.734-101.176l0.061-0.655v-3.556c0-2.062 0-3.982 0.427-5.831s0-3.698 0-5.547 0-3.698 0-5.547 0-3.769-0.427-5.831v-3.556c-4.716-42.48-27.608-78.816-60.606-101.52l-0.478-0.311c-2.489-1.636-4.693-3.2-7.538-4.693z" />
<glyph unicode="&#xe932;" glyph-name="coincidence" data-tags="coincidence" d="M640 896h-256l128-128 128 128zM480 704h64v-704h-64v704zM64 576h355.556v-64h-355.556v64zM604.444 256h355.556v-64h-355.556v64z" />
<glyph unicode="&#xe933;" glyph-name="columns" data-tags="columns" d="M64 832.711v-768.711l128 0.711 768-0.711v768.711zM128 128v512h352v-512zM896 128h-352v512h352zM896 704h-768v64h768z" />
<glyph unicode="&#xe934;" glyph-name="connect" data-tags="connect" d="M250.453 480c-13.577 37.605-48.961 64-90.51 64-53.019 0-96-42.981-96-96s42.981-96 96-96c41.549 0 76.933 26.395 90.298 63.332l0.211 0.668h69.547v64h-69.547zM160 423.111c-13.746 0-24.889 11.143-24.889 24.889s11.143 24.889 24.889 24.889c13.746 0 24.889-11.143 24.889-24.889v0c0-13.746-11.143-24.889-24.889-24.889v0zM864 544c-41.526-0.025-76.883-26.413-90.242-63.332l-0.211-0.668h-69.547v-64h69.547c13.577-37.605 48.961-64 90.51-64 53.019 0 96 42.981 96 96s-42.981 96-96 96c-0.020 0-0.040 0-0.059 0h0.003zM864 423.111c-13.746 0-24.889 11.143-24.889 24.889s11.143 24.889 24.889 24.889c13.746 0 24.889-11.143 24.889-24.889v0c0-13.746-11.143-24.889-24.889-24.889v0zM368 480h64v-64h-64v64zM592 480h64v-64h-64v64zM480 480h64v-64h-64v64z" />
<glyph unicode="&#xe935;" glyph-name="contrast" data-tags="contrast" d="M512 896c-247.424 0-448-200.576-448-448s200.576-448 448-448c247.424 0 448 200.576 448 448v0c0 247.424-200.576 448-448 448v0zM480 800v-64h-221.582c28.744 25.496 61.854 46.965 97.902 63.030l2.436 0.97zM480 672v-64h-316.942c11.355 24.499 23.807 45.5 38.086 65.084l-0.753-1.084zM480 544v-64h-350.578c1.997 23.778 5.798 45.587 11.338 66.693l-0.601-2.693zM480 352h-339.84c-4.939 18.412-8.74 40.221-10.64 62.573l-0.098 1.427h350.578zM480 288v-64h-279.609c-13.526 18.5-25.978 39.501-36.353 61.669l-0.98 2.331zM480 160v-64h-120.889c-38.484 17.035-71.594 38.504-100.736 64.347l0.398-0.347zM544 65.422v765.156c197.388-17.544 350.981-182.124 350.981-382.578s-153.594-365.034-349.513-382.472l-1.468-0.105z" />
<glyph unicode="&#xe936;" glyph-name="copy" data-tags="copy" d="M640 256v640h-576v-704h576zM128 256v576h448v-576zM896 704h-192v-64h192v-576h-448v64h-64v-128h576v704h-64z" />
<glyph unicode="&#xe937;" glyph-name="ctl_backward" data-tags="ctl_backward" d="M64 448l576 320v-142.222l256 142.222v-640l-256 142.222v-142.222zM832 236.8v422.4l-192-106.667v-209.067zM576 379.022v280.178l-380.231-211.2 380.231-211.2v142.222z" />
<glyph unicode="&#xe938;" glyph-name="ctl_forward" data-tags="ctl_forward" d="M960 448l-576 320v-142.222l-256 142.222v-640l256 142.222v-142.222zM192 236.8v422.4l192-106.667v-209.067zM448 379.022v280.178l380.231-211.2-380.231-211.2v142.222z" />
<glyph unicode="&#xe939;" glyph-name="ctl_next" data-tags="ctl_next" d="M832 768h64v-640h-64v640zM128 128l576 320-576 320zM192 659.2l380.231-211.2-380.231-211.2z" />
<glyph unicode="&#xe93a;" glyph-name="ctl_pause" data-tags="ctl_pause" d="M128 64h320v768h-320zM192 768h192v-640h-192zM576 832v-768h320v768zM832 128h-192v640h192z" />
<glyph unicode="&#xe93b;" glyph-name="ctl_prev" data-tags="ctl_prev" d="M128 768h64v-640h-64v640zM320 448l576-320v640zM832 236.8l-380.231 211.2 380.231 211.2z" />
<glyph unicode="&#xe93c;" glyph-name="ctl_stop" data-tags="ctl_stop" d="M128 832v-768h768v768zM832 128h-640v640h640z" />
<glyph unicode="&#xe93d;" glyph-name="cut" data-tags="cut" d="M636.871 732.444l-296.249-226.631-53.547 46.293c12.317 15.986 19.741 36.295 19.741 58.338 0 30.984-14.667 58.542-37.437 76.109l-0.224 0.166-50.773 38.613c-15.335 10.841-34.418 17.329-55.017 17.329-53.019 0-96-42.981-96-96 0-29.437 13.249-55.779 34.109-73.389l0.143-0.118 163.484-125.156-163.484-125.156c-24.912-17.583-40.983-46.251-40.983-78.671 0-53.019 42.981-96 96-96 23.583 0 45.179 8.503 61.891 22.611l-0.143-0.118 50.773 38.898c22.994 17.733 37.661 45.291 37.661 76.275 0 22.043-7.424 42.352-19.908 58.563l0.167-0.225 53.547 46.293 296.249-226.916c10.315-7.943 23.418-12.73 37.639-12.73 19.973 0 37.74 9.443 49.081 24.107l0.106 0.143-316.16 272.924 316.16 273.138c-11.45 14.73-29.171 24.116-49.084 24.116-14.267 0-27.408-4.818-37.886-12.916l0.143 0.106zM236.231 591.004c-5.907-7.644-15.078-12.518-25.386-12.518-7.366 0-14.15 2.489-19.559 6.671l0.074-0.055-50.773 38.898c-8.178 5.873-13.441 15.356-13.441 26.069 0 17.673 14.327 32 32 32 7.75 0 14.856-2.755 20.393-7.338l-0.053 0.043 50.773-38.898c7.67-5.906 12.563-15.092 12.563-25.421 0-7.351-2.478-14.122-6.645-19.525l0.055 0.075zM230.258 260.124l-50.773-38.898c-5.483-4.541-12.59-7.295-20.339-7.295-17.673 0-32 14.327-32 32 0 10.712 5.264 20.195 13.346 26.003l0.095 0.065 50.773 38.898c5.483 4.541 12.59 7.295 20.339 7.295 17.673 0 32-14.327 32-32 0-10.712-5.264-20.195-13.346-26.003l-0.095-0.065zM640 480h64v-64h-64v64zM512 480h64v-64h-64v64zM896 480h64v-64h-64v64zM768 480h64v-64h-64v64z" />
<glyph unicode="&#xe93e;" glyph-name="database" data-tags="database" d="M960 800.356v-704.711l-128 0.711-768-0.711v704.711zM128 160h768v447.644h-768zM128 672h768v64h-768zM384 544h448v-64h-448v64zM192 544h128v-64h-128v64zM384 416h448v-64h-448v64zM192 416h128v-64h-128v64zM384 288h448v-64h-448v64zM192 288h128v-64h-128v64z" />
<glyph unicode="&#xe93f;" glyph-name="departure_time" data-tags="departure_time" d="M318.293 810.667h128v-64h-128v64zM414.293 597.333h-64v-223.289l3.627-3.058 108.231-93.013 41.742 48.569-89.6 76.942v193.849zM832 481.92h-318.080v-67.84h318.080l-110.080-110.080 48-48 192 192-192 192-48-48 110.080-110.080zM692.338 320h-67.129c-4.417-12.636-9.026-23.177-14.309-33.311l0.656 1.382c-1.564-3.058-3.2-6.116-4.907-9.102-0.853-1.493-1.707-3.058-2.631-4.551-2.56-4.267-5.262-8.533-8.036-12.658l-1.564-2.133-0.64-0.996c-31.997-45.048-77.113-78.919-129.738-96.263l-1.818-0.519-1.067-0.356c-4.124-1.351-8.249-2.489-12.444-3.556l-3.911-1.067c-3.698-0.853-7.111-1.707-11.164-2.418l-5.831-1.067-10.169-1.636-7.893-0.853-8.676-0.782c-4.764 0-9.6-0.498-14.222-0.498l-2.844-0.284h-2.631c-4.836 0-9.671 0-14.222 0.498l-8.676 0.782-7.893 0.853-10.169 1.636-5.831 1.067c-3.698 0.711-7.467 1.564-11.164 2.418l-3.911 1.067c-4.196 1.067-8.32 2.204-12.444 3.556l-1.067 0.356c-54.434 18.002-99.506 52.015-130.872 96.402l-0.541 0.807-0.64 0.996-1.564 2.133c-2.773 4.124-5.476 8.391-8.036 12.658-0.924 1.493-1.778 3.058-2.631 4.551-1.707 2.987-3.342 6.044-4.907 9.102-17.983 34.066-28.539 74.454-28.539 117.307 0 80.182 36.955 151.732 94.762 198.548l0.479 0.376c26.29 21.435 57.557 37.907 91.721 47.432l1.791 0.426h1.209l7.111 1.778 4.48 1.067 6.329 1.209c1.92 0.427 3.769 0.711 5.76 1.067l5.689 0.853c2.204 0 4.409 0.64 6.684 0.853l5.12 0.569 7.893 0.64h4.196c4.053 0 8.178 0 12.302 0s8.249 0 12.302 0h4.196l7.893-0.64 5.12-0.569c2.276 0 4.48-0.498 6.684-0.853l5.689-0.853c1.991 0 3.84-0.64 5.76-1.067l6.329-1.209 4.48-1.067 7.111-1.778h1.209c36.087-9.903 67.479-26.382 94.333-48.226l-0.467 0.368c10.993-8.889 20.822-18.199 29.88-28.219l0.2-0.225h80.213c-8.117 12.738-16.149 23.688-24.816 34.089l0.425-0.525c-42.6 51.188-100.136 88.623-165.883 105.679l-2.223 0.49-10.596 2.489h-1.422c-5.689 1.209-11.378 2.204-17.209 3.129l-7.111 1.067-7.111 0.853c-4.622 0.498-9.244 0.853-14.222 1.138h-4.978c-4.978 0-10.027 0.427-15.004 0.427h-1.707c-4.978 0-10.027 0-15.004-0.427h-4.978c-4.622 0-9.244-0.64-14.222-1.138l-7.111-0.853-7.111-1.067c-5.831-0.924-11.52-1.92-17.209-3.129h-1.422l-10.667-2.489c-67.791-17.592-125.168-54.963-167.261-105.51l-0.419-0.517c-45.734-54.942-73.493-126.252-73.493-204.045 0-54.757 13.753-106.301 37.993-151.367l-0.838 1.705c0.427-0.924 0.924-1.778 1.422-2.631l0.427-0.782c2.204-4.053 4.551-8.107 7.111-12.018l0.711-1.351c2.489-4.053 5.12-8.036 7.751-12.018l1.209-1.778c2.204-3.2 4.48-6.4 7.111-9.458l2.276-3.058c2.631-3.484 5.333-7.111 8.107-10.311l2.133-2.56c2.133-2.56 4.338-5.049 6.542-7.538l3.698-4.053 5.902-6.187 5.76-5.76 6.044-5.76 5.12-4.622 4.551-3.911c2.062-1.778 4.196-3.413 6.258-5.12l4.053-3.342 0.64-0.498 2.916-2.276c2.204-1.707 4.48-3.342 6.756-4.978l3.058-2.204c1.493-1.067 3.129-2.062 4.693-3.129l9.316-6.116 7.111-4.267 3.484-2.133 1.92-1.067 2.204-1.209c4.053-2.204 8.178-4.338 12.302-6.4 1.707-0.853 3.413-1.778 5.12-2.56 4.267-2.062 8.676-3.982 13.013-5.831l5.191-2.204c4.409-1.778 8.889-3.413 13.44-5.049l5.333-1.92c4.48-1.493 9.102-2.773 13.653-4.124l5.689-1.636c4.551-1.138 9.173-2.204 13.724-3.2l6.116-1.351c4.622-0.853 9.244-1.564 14.222-2.276l6.329-0.996c4.836-0.64 9.742-1.067 14.72-1.493 1.92 0 3.84-0.427 5.831-0.498 7.111-0.498 13.796-0.711 20.836-0.711s14.222 0 20.836 0.711c1.991 0 3.911 0.356 5.831 0.498 4.978 0.427 9.884 0.853 14.72 1.493l6.329 0.996c4.693 0.711 9.316 1.422 14.222 2.276l6.116 1.351c4.551 0.996 9.173 2.062 13.724 3.2l5.689 1.636c4.551 1.351 9.173 2.631 13.653 4.124l5.333 1.92c4.551 1.636 9.031 3.271 13.44 5.049l5.191 2.204c4.338 1.849 8.747 3.769 13.013 5.831 1.707 0.782 3.413 1.707 5.12 2.56 4.124 2.062 8.249 4.196 12.302 6.4l2.204 1.209 1.92 1.067 3.484 2.133 7.111 4.267 9.316 6.116c1.564 1.067 3.2 2.062 4.693 3.129l3.058 2.204c2.276 1.636 4.551 3.271 6.756 4.978l3.556 2.773 4.053 3.342c2.062 1.707 4.196 3.342 6.258 5.12l4.551 3.911 5.12 4.622 6.044 5.76 3.484 3.484c0.782 0.782 1.564 1.493 2.276 2.276l5.902 6.187 3.698 4.053c2.204 2.489 4.409 4.978 6.542 7.538l2.133 2.56c2.773 3.342 5.476 7.111 8.107 10.311l2.276 3.058c2.276 3.058 4.551 6.258 7.111 9.458l1.209 1.778c2.631 3.982 5.262 7.964 7.751 12.018l0.711 1.351c2.418 3.911 4.764 7.964 7.111 12.018l0.427 0.782c0.498 0.853 0.996 1.707 1.422 2.631v0c9.284 18.245 17.362 39.54 23.119 61.77l0.49 2.23z" />
<glyph unicode="&#xe940;" glyph-name="desktop" data-tags="desktop" d="M896 832h-832v-576h298.667l-42.667-128h-128v-64h640v64h-128l-42.667 128h298.667v576zM640 128h-256l42.667 128h170.667zM896 320h-768v64h768zM896 448h-768v320h768z" />
<glyph unicode="&#xe941;" glyph-name="deviation" data-tags="deviation" d="M412.942 582.116h64v-53.689h-64v53.689zM412.942 367.502h64v-53.689h-64v53.689zM412.942 474.809h64v-53.689h-64v53.689zM668.444 519.111c-13.511 60.089-67.982 92.018-116.053 120.178-36.622 21.333-71.111 41.742-75.164 66.987v3.342c37.605 13.577 64 48.961 64 90.51 0 53.019-42.981 96-96 96s-96-42.981-96-96c0-41.549 26.395-76.933 63.332-90.298l0.668-0.211c-0.082-1.36-0.129-2.95-0.129-4.551s0.047-3.191 0.139-4.769l-0.010 0.218c6.4-57.742 59.662-88.96 106.667-116.48 40.391-23.68 78.222-46.009 85.973-79.004 3.384-17.105 5.321-36.771 5.321-56.889s-1.937-39.785-5.634-58.822l0.313 1.933c-7.111-32.924-45.582-55.324-85.973-79.004-47.076-27.804-100.338-58.951-106.738-116.693-0.082-1.36-0.129-2.95-0.129-4.551s0.047-3.191 0.139-4.769l-0.010 0.218c-37.605-13.577-64-48.961-64-90.51 0-53.019 42.981-96 96-96s96 42.981 96 96c0 41.549-26.395 76.933-63.332 90.298l-0.668 0.211v3.342c3.982 25.244 38.613 45.511 75.236 66.987 47.787 28.231 102.258 60.16 116.053 120.107 4.396 21.38 6.913 45.952 6.913 71.111s-2.517 49.731-7.312 73.477l0.399-2.366zM444.942 832c17.673 0 32-14.327 32-32s-14.327-32-32-32v0 0c-17.673 0-32 14.327-32 32s14.327 32 32 32v0zM444.942 64c-17.673 0-32 14.327-32 32s14.327 32 32 32v0 0c17.673 0 32-14.327 32-32s-14.327-32-32-32v0z" />
<glyph unicode="&#xe942;" glyph-name="display" data-tags="display" d="M64 832v-704.711h128v-64h64v64h512v-64h64v64h128v704.711zM896 192h-768v447.644h768zM896 704h-768v64h768zM192 576h448v-64h-448v64zM704 576h128v-64h-128v64zM192 448h448v-64h-448v64zM704 448h128v-64h-128v64zM192 320h448v-64h-448v64zM704 320h128v-64h-128v64z" />
<glyph unicode="&#xe943;" glyph-name="doc_folder" data-tags="doc_folder" d="M832 576v128h-384v64h-384v-640h704l192 448zM256 576l-128-298.667v426.667h256v-64h384v-64z" />
<glyph unicode="&#xe944;" glyph-name="doc_page" data-tags="doc_page" d="M320 224h384v-64h-384v64zM320 352h384v-64h-384v64zM320 480h384v-64h-384v64zM320 608h128v-64h-128v64zM320 736h128v-64h-128v64zM576 864h-384v-832h640v576zM739.556 608h-163.556v163.556zM768 96h-512v704h256v-256h256z" />
<glyph unicode="&#xe945;" glyph-name="doc_table" data-tags="doc_table" d="M896 768h-832v-640h896v640zM128 704h192v-128h-192zM128 512h192v-128h-192zM128 192v128h192v-128zM896 192h-512v128h512zM896 384h-512v128h512zM896 576h-512v128h512z" />
<glyph unicode="&#xe946;" glyph-name="dog" data-tags="dog" d="M63.858 256l0.142-256h448l34.347 138.169-329.956 197.902-152.533-80.071zM938.24 453.262l-247.396 26.524c0 0.030 0 0.066 0 0.101 0 28.254-19.828 51.876-46.328 57.711l-0.392 0.072-125.511 27.093-22.258 23.609c-9.875 10.367-22.175 18.334-35.995 22.999l-0.627 0.184-107.947 35.556 40.036-74.382c2.099-3.834 3.334-8.401 3.334-13.256 0-3.143-0.518-6.165-1.472-8.986l0.058 0.197-23.964-73.244c-1.327-4.012-3.063-7.496-5.216-10.674l0.096 0.15-29.582-44.444 248.533-149.333c8.377 14.762 23.988 24.559 41.887 24.559 0.549 0 1.096-0.009 1.641-0.028l-0.079 0.002 214.471-7.751c0.723-0.029 1.571-0.045 2.424-0.045 26.085 0 48.589 15.333 58.99 37.478l0.168 0.398 47.929 103.253c0.92 1.938 1.458 4.211 1.458 6.61 0 8.166-6.228 14.878-14.194 15.643l-0.064 0.005zM275.342 367.502l-22.4-11.947 302.791-181.689 16.924 64.498-260.409 156.444c-10.671-10.515-22.806-19.59-36.060-26.88l-0.847-0.427zM241.138 732.444c3.627-21.902-8.391-42.098-28.444-73.173-21.476-33.493-48.498-76.16-46.649-133.049 1.564-48.996 23.68-96.498 65.636-141.724l26.88 14.222c10.866 5.823 20.218 12.68 28.481 20.658l-0.037-0.036c-36.551 36.409-55.751 72.889-56.889 108.8-1.138 37.262 17.28 66.133 36.836 96.782 21.333 33.209 45.227 71.111 37.476 117.973-10.88 64.924-119.182 112.427-240.427 153.102v-64c92.444-31.076 170.667-61.796 177.138-99.556z" />
<glyph unicode="&#xe947;" glyph-name="download_log" data-tags="download_log" d="M64 896v-704h192v64h-128v576h768v-576h-128v-64h192v704h-896zM545.92 129.92v510.080h-67.84v-510.080l-110.080 110.080-48-48 192-192 192 192-48 48-110.080-110.080zM192 768h640v-64h-640v64zM609.92 640h158.080v-64h-158.080v64zM192 640h222.080v-64h-222.080v64zM609.92 512h222.080v-64h-222.080v64zM192 512h222.080v-64h-222.080v64zM609.92 384h158.080v-64h-158.080v64zM192 384h222.080v-64h-222.080v64z" />
<glyph unicode="&#xe948;" glyph-name="download_mobile" data-tags="download_mobile" d="M428.302 416.427v97.778c-42.474-13.933-78.788-36.669-108.301-66.203l-0.002-0.002 64-64c12.708 12.685 27.3 23.489 43.319 31.953l0.983 0.474zM595.698 514.133v-97.778c16.999-8.922 31.591-19.702 44.309-32.362l-0.007 0.007 64 64c-29.519 29.508-65.833 52.221-106.393 65.588l-1.91 0.545zM428.302 700.658c-93.133-17.797-173.855-62.096-236.295-124.651l-0.007-0.007 64-64c46.028 46.042 104.454 79.687 169.841 95.497l2.461 0.503zM595.698 608c67.857-16.286 126.289-49.936 172.299-95.997l0.003-0.003 64 64c-62.472 62.522-143.183 106.81-233.468 124.203l-2.834 0.454zM512 889.529c-0.261 0-0.57 0.001-0.88 0.001-174.671 0-332.779-70.911-447.108-185.517l-0.013-0.013 64-64c98.362 98.082 234.099 158.728 384 158.728s285.638-60.646 384.013-158.74l-0.013 0.013 64 64c-114.373 114.619-272.51 185.529-447.209 185.529-0.278 0-0.557 0-0.835-0.001h0.044zM545.92 129.92v574.080h-67.84v-574.080l-110.080 110.080-48-48 192-192 192 192-48 48-110.080-110.080z" />
<glyph unicode="&#xe949;" glyph-name="download" data-tags="download" d="M960 320v-320h-896v320h64v-256h768v256h64zM272.498 431.502l46.933 46.933 159.36-159.289v576.853h66.418v-576.853l159.36 159.289 46.933-46.933-239.502-239.502-239.502 239.502z" />
<glyph unicode="&#xe94a;" glyph-name="draw" data-tags="draw" d="M239.498 502.232l58.485 25.99 25.557-57.51-58.485-25.99-25.557 57.51zM188.455 617.225l58.485 25.99 25.557-57.51-58.485-25.99-25.557 57.51zM290.606 387.268l58.485 25.99 25.557-57.51-58.485-25.99-25.557 57.51zM137.347 732.259l58.485 25.99 25.557-57.51-58.485-25.99-25.557 57.51zM466.35 443.401l31.25 47.159 53.12-35.2-31.25-47.159-53.12 35.2zM403.472 349.44l31.25 47.159 53.12-35.2-31.25-47.159-53.12 35.2zM529.3 537.362l31.25 47.159 53.12-35.2-31.25-47.159-53.12 35.2zM649.35 540.229l58.485 25.99 25.557-57.51-58.485-25.99-25.557 57.51zM802.608 195.238l58.485 25.99 25.557-57.51-58.485-25.99-25.557 57.51zM700.457 425.265l58.485 25.99 25.557-57.51-58.485-25.99-25.557 57.51zM751.5 310.202l58.485 25.99 25.557-57.51-58.485-25.99-25.557 57.51zM960 64c0-35.346-28.654-64-64-64s-64 28.654-64 64c0 35.346 28.654 64 64 64s64-28.654 64-64zM192 832c0-35.346-28.654-64-64-64s-64 28.654-64 64c0 35.346 28.654 64 64 64s64-28.654 64-64zM448 256c0-35.346-28.654-64-64-64s-64 28.654-64 64c0 35.346 28.654 64 64 64s64-28.654 64-64zM704 640c0-35.346-28.654-64-64-64s-64 28.654-64 64c0 35.346 28.654 64 64 64s64-28.654 64-64z" />
<glyph unicode="&#xe94b;" glyph-name="edit" data-tags="edit" d="M768 130.631h-640v637.369h547.129v64h-611.129v-768h768v320h-64v-253.369zM960 735.36l-69.902-69.973-96.711 96.711 69.973 69.902zM448 416.64l320 320 96.64-96.64-320-320h-96.64z" />
<glyph unicode="&#xe94c;" glyph-name="end_point" data-tags="end_point" d="M421.547 192c13.577 37.605 48.961 64 90.51 64 53.019 0 96-42.981 96-96s-42.981-96-96-96c-41.549 0-76.933 26.395-90.298 63.332l-0.211 0.668h-69.547v64h69.547zM512 135.111c13.746 0 24.889 11.143 24.889 24.889s-11.143 24.889-24.889 24.889c-13.746 0-24.889-11.143-24.889-24.889v0c0-13.746 11.143-24.889 24.889-24.889v0zM240 192h64v-64h-64v64zM128 192h64v-64h-64v64zM322.418 320v512h184.32c0.556 0.002 1.215 0.004 1.874 0.004 26.029 0 51.556-2.148 76.415-6.276l-2.698 0.37c22.973-3.499 43.657-10.548 62.472-20.629l-1.032 0.505c17.18-9.294 31.173-22.512 41.12-38.508l0.267-0.461c9.713-16.678 15.447-36.708 15.447-58.078 0-1.583-0.031-3.158-0.094-4.725l0.007 0.225c-0.024-11.94-1.762-23.465-4.983-34.354l0.218 0.861c-3.512-12.34-7.97-23.054-13.494-33.098l0.41 0.813c-5.606-10.365-12.251-19.278-19.993-27.104l0.010 0.010c-7.369-7.462-16.317-13.346-26.304-17.113l-0.505-0.167v-3.2c25.050-7.411 46.29-21.246 62.526-39.61l0.123-0.142q25.6-28.444 25.6-79.929c0.056-1.44 0.088-3.131 0.088-4.83 0-46.13-23.439-86.786-59.058-110.708l-0.479-0.303c-18.302-12.323-39.723-21.724-62.736-26.924l-1.264-0.24c-22.882-5.518-49.153-8.682-76.163-8.682-0.724 0-1.447 0.002-2.17 0.007l0.111-0.001zM457.529 631.893h45.724q33.067 0 48.782 14.222c9.741 8.878 15.83 21.619 15.83 35.782 0 0.721-0.016 1.438-0.047 2.151l0.004-0.102c0.091 0.977 0.143 2.113 0.143 3.261 0 12.604-6.246 23.75-15.812 30.51l-0.117 0.079q-15.716 10.24-48.782 10.24h-45.369zM457.529 423.964h55.111q78.791 0 78.791 56.889 0 28.444-19.271 40.178c-12.871 7.822-32.711 11.804-59.52 11.804h-54.756z" />
<glyph unicode="&#xe94d;" glyph-name="error" data-tags="error" d="M512 835.982l-448-775.964h896zM512 723.2l345.956-599.182h-691.911zM490.382 319.929h43.236l9.031 192.142 1.991 63.929h-65.28l1.991-63.929 9.031-192.142zM512 279.822c-0.615 0.031-1.336 0.048-2.061 0.048-24.271 0-43.947-19.676-43.947-43.947s19.676-43.947 43.947-43.947c24.179 0 43.797 19.527 43.946 43.671v0.014c0.032 0.616 0.051 1.337 0.051 2.063 0 23.193-18.755 42.005-41.926 42.097h-0.009z" />
<glyph unicode="&#xe94e;" glyph-name="exit" data-tags="exit" d="M285.724 551.182l103.751-103.751h-325.476v-64h325.476l-103.751-103.822 45.227-45.227 181.049 181.049-181.049 180.978-45.227-45.227zM576 832v-768h384v768zM896 128h-256v256h256zM896 448h-256v320h256zM128 482.987v285.013h256v-174.293l64-64v302.293h-384v-349.013zM384 128h-256v219.876h-64v-283.876h384v237.084l-64-64v-109.084zM64 832h896v-64h-896v64zM64 128h896v-64h-896v64z" />
<glyph unicode="&#xe94f;" glyph-name="expand_1" data-tags="expand_1" d="M896 896h-192v-64h149.973l-424.107-424.107 45.298-45.227 420.836 420.836v-143.502h64v256h-64zM768 64h-640v640h448v64h-512v-768h768v512h-64v-448z" />
<glyph unicode="&#xe950;" glyph-name="expand" data-tags="expand" d="M320 832v64h-256v-256h64v146.773l210.773-210.773 45.227 45.227-210.773 210.773h146.773zM896 896h-192v-64h149.973l-210.773-210.773 45.298-45.227 207.502 207.502v-143.502h64v256h-64zM896 109.227l-210.773 210.773-45.227-45.227 210.773-210.773h-146.773v-64h256v256h-64v-146.773zM338.773 320l-210.773-210.773v146.773h-64v-256h256v64h-146.773l210.773 210.773-45.227 45.227z" />
<glyph unicode="&#xe951;" glyph-name="eye_dis" data-tags="eye_dis" d="M572.871 413.369l-92.942-92.942c10.939-3.381 23.515-5.328 36.546-5.328 70.692 0 128 57.308 128 128 0 13.031-1.947 25.607-5.566 37.453l0.238-0.907-65.636-65.707zM243.982 275.556l46.222 46.151c-27.282 17.514-51.004 36.648-72.475 58.040l0.013-0.013-63.218 63.289 63.218 63.218c76.015 76.474 181.274 123.806 297.589 123.806 0.379 0 0.758-0.001 1.137-0.002h-0.059c26.671-0.149 52.64-2.73 77.822-7.533l-2.657 0.422 53.404 53.404c-38.591 11.015-82.914 17.348-128.716 17.348-134.308 0-255.896-54.46-343.887-142.502l-0.002-0.002-108.373-108.16 108.516-108.8c21.378-21.243 44.741-40.542 69.77-57.577l1.697-1.090zM860.444 551.538c-24.561 24.528-51.731 46.455-81.055 65.325l-1.932 1.164-46.436-46.436c31.958-19.092 59.579-40.717 84.193-65.348l63.221-63.221-63.218-63.289c-76.073-76.434-181.36-123.734-297.695-123.734-0.342 0-0.683 0-1.025 0.001h0.053c-32.284 0.012-63.72 3.612-93.941 10.424l2.847-0.539-52.338-52.551c42.864-13.694 92.169-21.587 143.317-21.587 134.34 0 255.964 54.446 344.009 142.476l-0.001-0.001 108.658 108.8zM388.551 443.022c0.021-7.552 0.693-14.931 1.962-22.105l-0.113 0.771 147.2 147.2c-6.715 1.259-14.44 1.979-22.333 1.979-70.143 0-127.004-56.862-127.004-127.004 0-0.371 0.002-0.741 0.005-1.111v0.057zM445.724 336.427l472.889 472.96-45.227 45.227-768-768 45.227-45.227 295.111 295.040z" />
<glyph unicode="&#xe952;" glyph-name="eye" data-tags="eye" d="M856.036 556.516c-88.047 88.046-209.682 142.503-344.036 142.503s-255.989-54.457-344.036-142.503l-108.516-108.516 108.516-108.516c88.047-88.046 209.682-142.503 344.036-142.503s255.989 54.457 344.036 142.503l108.516 108.516zM810.667 384.782c-76.446-76.413-182.037-123.673-298.667-123.673s-222.221 47.26-298.668 123.675l0.002-0.002-63.36 63.218 63.36 63.218c76.446 76.413 182.037 123.673 298.667 123.673s222.221-47.26 298.668-123.675l-0.002 0.002 63.36-63.218zM512 576c-70.692 0-128-57.308-128-128s57.308-128 128-128c70.692 0 128 57.308 128 128v0c0 70.692-57.308 128-128 128v0zM512 384c-35.346 0-64 28.654-64 64s28.654 64 64 64c35.346 0 64-28.654 64-64v0c0-35.346-28.654-64-64-64v0z" />
<glyph unicode="&#xe953;" glyph-name="filter" data-tags="filter" d="M64 896l320-448v-320l256-128v384h-64v-280.462l-128 64v300.942l-11.947 16.711-247.68 346.809h707.627v64h-832zM512 768h320v-64h-320v64zM512 640h256v-64h-256v64zM512 512h192v-64h-192v64z" />
<glyph unicode="&#xe954;" glyph-name="garbage" data-tags="garbage" d="M941.867 877.867c-13.227 13.156-32.284 18.133-52.551 18.133-27.558-0.775-53.394-7.381-76.564-18.621l1.115 0.488c-77.796-36.978-69.973-107.307-128-128-7.462-2.825-16.088-4.466-25.096-4.48h-0.006c-52.409 0-97.067 56.107-166.898 68.48-8.398 1.53-18.067 2.41-27.94 2.418h-0.007c-50.987 0-119.396-23.609-209.351-107.093v0c-8.889-8.249-17.991-17.138-27.236-26.524h70.187v-72.533c55.324-23.74 93.37-77.747 93.37-140.639 0-20.181-3.917-39.447-11.033-57.079l0.365 1.025 46.080-46.080 53.262 32.356 45.227 11.307 42.098-20.907-262.471 268.089c61.511 56.533 116.551 86.969 159.502 86.969 0.091 0 0.199 0.001 0.306 0.001 5.396 0 10.677-0.492 15.801-1.433l-0.533 0.081c21.333-3.84 42.667-16.213 64.853-29.298 32.071-18.844 68.338-40.249 114.418-40.249 0.093 0 0.203 0 0.313 0 17.429 0 34.14 3.075 49.619 8.712l-1.008-0.321c51.556 18.347 74.596 56.889 91.449 84.48 14.72 24.32 22.684 36.48 43.236 46.222 12.985 6.43 28.161 10.58 44.201 11.506l0.314 0.014c-0.918-16.342-5.018-31.52-11.686-45.217l0.308 0.701c-9.742-20.551-21.902-28.444-46.222-43.236-27.733-16.853-66.062-40.249-84.622-91.449-24.32-68.196 8.036-123.164 31.644-163.556 13.084-22.187 25.458-43.236 29.298-64.853 8.178-46.578-23.396-108.871-90.027-179.911l-41.956 42.667 19.769-79.004-21.831-8.107 36.053-62.578c21.689 19.413 40.747 37.902 57.529 55.68v0 0c104.747 110.649 119.68 189.227 110.222 243.2-14.222 80.64-86.898 128-64 192 20.693 58.027 91.022 50.204 128 128 17.707 36.836 30.791 98.276 0.498 128.64zM157.369 647.111h106.667v-53.333h-106.667v53.333zM266.027 71.111c-7.464-4.4-16.43-7.030-26.004-7.111h-58.69c-29.455 0-53.333 23.878-53.333 53.333v0 176c0 0.047 0 0.103 0 0.158 0 15.872 7.027 30.103 18.14 39.751l0.065 0.055c13.34 11.786 21.708 28.933 21.708 48.036s-8.369 36.25-21.64 47.976l-0.069 0.059c-11.178 9.703-18.205 23.934-18.205 39.806 0 0.056 0 0.111 0 0.167v-0.009c0 29.455 23.878 53.333 53.333 53.333v0h58.667c29.455 0 53.333-23.878 53.333-53.333v0c0-0.047 0-0.103 0-0.158 0-15.872-7.027-30.103-18.14-39.751l-0.065-0.055c-13.34-11.786-21.708-28.933-21.708-48.036s8.369-36.25 21.64-47.976l0.069-0.059c0.257-0.222 0.489-0.454 0.704-0.703l0.007-0.009 9.031 17.92 49.351 12.16c-5.099 6.879-10.659 12.912-16.795 18.306l-0.129 0.112c24.648 21.608 40.126 53.156 40.126 88.32 0 64.762-52.5 117.262-117.262 117.262-0.057 0-0.114 0-0.171 0h-58.658c-0.018 0-0.039 0-0.060 0-64.762 0-117.262-52.5-117.262-117.262 0-35.050 15.378-66.508 39.754-87.996l0.128-0.111c-24.503-21.545-39.886-52.958-39.893-87.963v-176.001c0-64.801 52.532-117.333 117.333-117.333v0h58.667c0.021 0 0.045 0 0.070 0 21.061 0 40.822 5.566 57.892 15.307l-0.575-0.302-19.129 19.129zM571.022 174.791l-54.044 40.249 53.476-22.187 82.987 30.862-24.107 96.284-106.667 53.333-27.236-6.827-107.876-65.493-42.027-97.28 34.418 133.902-70.613-17.636-53.333-106.667 53.333-160 53.333-53.333h106.667l-27.022 54.116-60.8 24.462 76.302 0.213 39.467-70.329 78.72-8.462 106.667 106.667-49.209 85.476-62.436-17.351z" />
<glyph unicode="&#xe955;" glyph-name="gps" data-tags="gps" d="M711.111 448c0-109.966-89.145-199.111-199.111-199.111s-199.111 89.145-199.111 199.111c0 109.966 89.145 199.111 199.111 199.111s199.111-89.145 199.111-199.111zM960 479.147h-82.276c-15.837 178.049-156.529 318.741-333.172 334.477l-1.406 0.101v82.276h-62.293v-82.276c-178.049-15.837-318.741-156.529-334.477-333.172l-0.101-1.406h-82.276v-62.293h82.276c15.837-178.049 156.529-318.741 333.172-334.477l1.406-0.101v-82.276h62.293v82.276c178.049 15.837 318.741 156.529 334.477 333.172l0.101 1.406h82.276zM512 143.076c-168.405 0-304.924 136.519-304.924 304.924s136.519 304.924 304.924 304.924c168.405 0 304.924-136.519 304.924-304.924v0c-0.202-168.324-136.601-304.722-304.905-304.924h-0.019z" />
<glyph unicode="&#xe956;" glyph-name="help" data-tags="help" d="M512 896c-247.424 0-448-200.576-448-448v0 0c0-247.424 200.576-448 448-448s448 200.576 448 448v0 0c0 247.424-200.576 448-448 448v0zM512 64c-212.077 0-384 171.923-384 384s171.923 384 384 384c212.077 0 384-171.923 384-384v0c-0.243-211.98-172.021-383.758-383.977-384h-0.023zM504.036 312.178c-29.867 0-52.907-23.609-52.907-55.751-0.045-0.82-0.071-1.779-0.071-2.744 0-29.259 23.719-52.978 52.978-52.978s52.978 23.719 52.978 52.978c0 0.965-0.026 1.924-0.077 2.877l0.006-0.133c0 32.142-23.040 55.751-52.907 55.751zM512.853 694.756c-53.476 0-97.138-25.884-128.853-61.867l45.796-41.813c20.764 22.187 44.373 36.693 73.102 36.693 36.693 0 58.027-23.040 58.027-56.889 0-64-108.373-104.676-93.582-208.498h71.964c-9.956 92.018 100.693 124.16 100.693 214.613 0 77.227-52.907 117.76-127.147 117.76z" />
<glyph unicode="&#xe957;" glyph-name="home" data-tags="home" d="M512 805.476l384-384v-357.476h-192v256h-384v-256h-192v357.476l384 384zM512 896l-448-448v-448h320v256h256v-256h320v448l-448 448z" />
<glyph unicode="&#xe958;" glyph-name="info" data-tags="info" d="M512 896c-247.424 0-448-200.576-448-448v0 0c0-247.424 200.576-448 448-448s448 200.576 448 448v0 0c0 247.424-200.576 448-448 448v0zM512 64c-212.077 0-384 171.923-384 384s171.923 384 384 384c212.077 0 384-171.923 384-384v0c-0.243-211.98-172.021-383.758-383.977-384h-0.023zM461.369 653.227c0 27.591 21.333 46.364 50.631 46.364s50.631-18.773 50.631-46.364-21.333-46.364-50.631-46.364-50.631 19.342-50.631 46.364zM470.756 545.707h81.92v-349.298h-81.92z" />
<glyph unicode="&#xe959;" glyph-name="insert" data-tags="insert" d="M320 576h640v-64h-640v64zM192 768h704v-64h-704v64zM192 384h704v-64h-704v64zM192 192h704v-64h-704v64zM64 672v-256l192 128-192 128z" />
<glyph unicode="&#xe95a;" glyph-name="inter" data-tags="inter" d="M498.276 704l102.898 102.827-50.347 50.347-153.102-153.173 128-128-128-128 128-128-128-128 153.102-153.173 50.347 50.347-102.898 102.827 128 128-128 128 128 128-128 128zM160 544c-0.017 0-0.037 0-0.056 0-53.019 0-96-42.981-96-96s42.981-96 96-96c41.549 0 76.933 26.395 90.298 63.332l0.211 0.668h69.547v64h-69.547c-13.571 37.587-48.927 63.975-90.45 64h-0.003zM160 423.111c-13.746 0-24.889 11.143-24.889 24.889s11.143 24.889 24.889 24.889c13.746 0 24.889-11.143 24.889-24.889v0c0-13.746-11.143-24.889-24.889-24.889v0zM864 544c-41.526-0.025-76.883-26.413-90.242-63.332l-0.211-0.668h-69.547v-64h69.547c13.577-37.605 48.961-64 90.51-64 53.019 0 96 42.981 96 96s-42.981 96-96 96c-0.020 0-0.040 0-0.059 0h0.003zM864 423.111c-13.746 0-24.889 11.143-24.889 24.889s11.143 24.889 24.889 24.889c13.746 0 24.889-11.143 24.889-24.889v0c0-13.746-11.143-24.889-24.889-24.889v0z" />
<glyph unicode="&#xe95b;" glyph-name="light_down" data-tags="light_down" d="M512 640c-106.039 0-192-85.961-192-192s85.961-192 192-192c106.039 0 192 85.961 192 192v0c0 106.039-85.961 192-192 192v0zM512 320c-70.692 0-128 57.308-128 128s57.308 128 128 128c70.692 0 128-57.308 128-128v0c0-70.692-57.308-128-128-128v0zM480 768h64v-64h-64v64zM480 192h64v-64h-64v64zM768 480h64v-64h-64v64zM192 480h64v-64h-64v64zM670.36 651.684l45.255 45.255 45.255-45.255-45.255-45.255-45.255 45.255zM263.107 244.316l45.255 45.255 45.255-45.255-45.255-45.255-45.255 45.255zM670.382 244.338l45.255 45.255 45.255-45.255-45.255-45.255-45.255 45.255zM263.085 651.662l45.255 45.255 45.255-45.255-45.255-45.255-45.255 45.255z" />
<glyph unicode="&#xe95c;" glyph-name="light_up" data-tags="light_up" d="M512 640c-106.039 0-192-85.961-192-192s85.961-192 192-192c106.039 0 192 85.961 192 192v0c0 106.039-85.961 192-192 192v0zM512 320c-70.692 0-128 57.308-128 128s57.308 128 128 128c70.692 0 128-57.308 128-128v0c0-70.692-57.308-128-128-128v0zM480 896h64v-192h-64v192zM480 192h64v-192h-64v192zM768 480h192v-64h-192v64zM64 480h192v-64h-192v64zM670.403 651.616l135.765 135.765 45.255-45.255-135.765-135.765-45.255 45.255zM172.554 153.874l135.765 135.765 45.255-45.255-135.765-135.765-45.255 45.255zM670.385 244.366l45.255 45.255 135.765-135.765-45.255-45.255-135.765 135.765zM172.572 742.144l45.255 45.255 135.765-135.765-45.255-45.255-135.765 135.765z" />
<glyph unicode="&#xe95d;" glyph-name="linear_view" data-tags="linear_view" d="M640 560v64h-96v85.333c37.605 13.577 64 48.961 64 90.51 0 53.019-42.981 96-96 96s-96-42.981-96-96c0-41.549 26.395-76.933 63.332-90.298l0.668-0.211v-85.333h-96v-64h96v-80h-96v-64h96v-80h-96v-64h96v-85.333c-37.605-13.577-64-48.961-64-90.51 0-53.019 42.981-96 96-96s96 42.981 96 96c0 41.549-26.395 76.933-63.332 90.298l-0.668 0.211v85.333h96v64h-96v80h96v64h-96v80zM512 832c17.673 0 32-14.327 32-32s-14.327-32-32-32c-17.673 0-32 14.327-32 32v0c0.040 17.657 14.343 31.96 31.996 32h0.004zM512 64c-17.673 0-32 14.327-32 32s14.327 32 32 32c17.673 0 32-14.327 32-32v0c-0.040-17.657-14.343-31.96-31.996-32h-0.004z" />
<glyph unicode="&#xe95e;" glyph-name="list" data-tags="list" d="M243.2 704h716.8v-64h-716.8v64zM128 672c0-17.673-14.327-32-32-32s-32 14.327-32 32c0 17.673 14.327 32 32 32s32-14.327 32-32zM243.2 480h716.8v-64h-716.8v64zM128 448c0-17.673-14.327-32-32-32s-32 14.327-32 32c0 17.673 14.327 32 32 32s32-14.327 32-32zM243.2 256h716.8v-64h-716.8v64zM128 224c0-17.673-14.327-32-32-32s-32 14.327-32 32c0 17.673 14.327 32 32 32s32-14.327 32-32z" />
<glyph unicode="&#xe95f;" glyph-name="lock" data-tags="lock" d="M768 512v128c0 141.385-114.615 256-256 256s-256-114.615-256-256v0-128h-128v-512h768v512zM320 640c0 106.039 85.961 192 192 192s192-85.961 192-192v0-128h-384zM832 64h-640v384h640zM512 384c-0.019 0-0.042 0-0.065 0-44.144 0-79.929-35.785-79.929-79.929 0-23.645 10.267-44.891 26.586-59.525l0.075-0.066v-116.48h106.667v116.48c16.394 14.7 26.66 35.947 26.66 59.591 0 44.144-35.785 79.929-79.929 79.929-0.023 0-0.046 0-0.069 0h0.004z" />
<glyph unicode="&#xe960;" glyph-name="login" data-tags="login" d="M606.791 863.289v-95.289h-222.791v-164.907h64v100.907h158.791v-512h-158.791v100.907h-64v-164.907h222.791v-95.289l353.209 88.32v653.938l-353.209 88.32zM382.080 481.92h-318.080v-67.84h318.080l-110.080-110.080 48-48 192 192-192 192-48-48 110.080-110.080z" />
<glyph unicode="&#xe961;" glyph-name="logout" data-tags="logout" d="M417.209 863.289v-95.289h222.791v-164.907h-64v100.907h-158.791v-512h158.791v100.907h64v-164.907h-222.791v-95.289l-353.209 88.32v653.938l353.209 88.32zM830.080 481.92h-318.080v-67.84h318.080l-110.080-110.080 48-48 192 192-192 192-48-48 110.080-110.080z" />
<glyph unicode="&#xe962;" glyph-name="mail" data-tags="mail" d="M924.444 596.48l-412.444 235.52-448-256v-512h896v512zM512 750.080l340.48-194.56-340.48-194.56-340.48 194.56zM135.111 494.080l305.209-174.080-305.209-174.436zM260.124 135.111l251.876 143.929 251.876-143.929zM888.889 145.564l-305.209 174.436 305.209 174.436z" />
<glyph unicode="&#xe963;" glyph-name="maintenance" data-tags="maintenance" d="M672 4.338h-64v402.418l16 9.244c67.337 39.455 111.842 111.459 111.842 193.857 0 69.16-31.353 130.997-80.62 172.074l-0.359 0.291v-155.164l-142.862-82.489-142.862 82.489v155.164c-49.627-41.368-80.98-103.205-80.98-172.365 0-82.399 44.505-154.403 110.788-193.286l1.054-0.572 16-9.244v-402.418h-64v366.222c-77.563 52.414-127.883 140.024-127.883 239.388 0 113.768 65.966 212.128 161.736 258.919l1.703 0.751 45.867 22.044v-227.556l78.578-45.44 78.862 45.582v227.556l45.867-22.044c97.472-47.541 163.439-145.902 163.439-259.67 0-99.364-50.32-186.974-126.866-238.74l-1.017-0.648zM480 260.338h64v-256h-64v256z" />
<glyph unicode="&#xe964;" glyph-name="map_route" data-tags="map_route" d="M282.524 538.524c23.155 23.162 37.476 55.156 37.476 90.495 0 70.692-57.308 128-128 128s-128-57.308-128-128c0-35.339 14.321-67.333 37.476-90.495l90.524-90.524zM146.773 674.276c11.668 12.155 28.050 19.707 46.197 19.707 35.346 0 64-28.654 64-64 0-18.164-7.567-34.561-19.721-46.21l-0.023-0.022-45.227-45.227-45.227 45.227c-11.586 11.582-18.753 27.585-18.753 45.262s7.166 33.68 18.752 45.262v0zM741.476 399.502c-23.151-23.161-37.47-55.153-37.47-90.489s14.319-67.328 37.47-90.489l90.524-90.524 90.524 90.524c23.594 23.233 38.212 55.522 38.212 91.226 0 70.692-57.308 128-128 128-35.721 0-68.025-14.633-91.244-38.231l-0.017-0.017zM896 309.049c0-0.004 0-0.010 0-0.015 0-17.687-7.175-33.698-18.773-45.282l-45.228-45.228-45.227 45.227c-11.599 11.585-18.773 27.596-18.773 45.283 0 35.346 28.654 64 64 64 35.341 0 63.992-28.645 64-63.984v-0.001zM456.676 896h-392.676v-123.876c17.971 16.135 39.26 28.997 62.669 37.413l1.331 0.418v22.044h269.013l-47.004-94.009c17.984-25.73 29.895-56.94 33.011-90.699l0.056-0.75 64.924-32.356-57.244-114.489-40.676 20.338c-6.896-10.008-14.214-18.771-22.257-26.808l-0.001-0.001-22.471-22.4 166.684-83.413-58.453-113.778-274.773 137.316-74.809 74.524v-485.476h896v165.476l-64-64v-37.476h-63.289l-54.4 27.236-307.484 153.529 58.667 113.778 110.507-55.182c-0.037 1.419-0.059 3.089-0.059 4.764 0 22.062 3.692 43.261 10.492 63.014l-0.407-1.36-202.027 101.262 56.889 114.489 226.062-113.067c24.842 15.613 54.588 25.741 86.51 27.984l0.601 0.034-75.662 37.973 56.889 114.56 96.711-48.569v-114.347c24.742-8.861 46.029-21.746 64.175-38.057l-0.175 0.155v443.804zM525.227 146.204l164.551-82.204h-205.653zM128 64v66.133l132.267-66.133zM412.444 64h-9.102l-275.342 137.671v143.147l339.982-170.027zM685.156 567.111l-279.182 139.591 56.889 114.489 279.040-139.52zM896 676.338l-311.324 155.662h311.324z" />
<glyph unicode="&#xe965;" glyph-name="map" data-tags="map" d="M64.711 896l-0.711-896h897.138l-1.138 895.644zM646.116 827.022c0.027-1.271 0.042-2.768 0.042-4.269 0-42.133-11.924-81.481-32.581-114.853l0.54 0.936c-49.778-78.222-170.027-122.524-277.973-58.098-59.378 35.556-98.987 101.049-109.582 176.427zM128.64 827.022h33.209c11.236-100.267 63.502-188.942 143.218-236.8 40.15-24.347 88.673-38.756 140.561-38.756 0.034 0 0.068 0 0.102 0h-0.005c0.893-0.011 1.947-0.017 3.003-0.017 90.928 0 170.972 46.603 217.548 117.227l0.605 0.977c26.818 43.216 42.714 95.646 42.714 151.789 0 1.837-0.017 3.67-0.051 5.499l0.004-0.274h142.649c-10.737-45.131-27.001-84.905-48.4-121.297l1.111 2.044c-35.556-61.084-106.098-144.071-238.862-192-73.671-26.738-130.204-26.098-184.889-25.529-66.204 0.711-128.782 1.422-205.156-46.222-18.067-11.421-33.745-23.277-48.362-36.299l0.362 0.317zM128.64 311.822c22.48 28.286 48.888 52.228 78.654 71.409l1.275 0.769c61.156 38.116 110.293 37.547 172.444 36.907 56.889-0.64 121.884-1.351 206.222 29.156 150.613 54.684 231.324 150.258 272.569 220.444 13.12 22.109 25.496 47.891 35.625 74.774l1.139 3.448v-213.333c-39.964-59.733-87.182-103.396-141.156-130.133-59.307-29.369-111.076-30.507-161.209-31.716-53.049-1.209-108.018-2.489-162.489-39.324-76.16-51.271-122.453-113.778-138.24-265.244h-165.476zM545.92 68.907c6.187 49.778 20.053 92.942 45.867 107.449 40.533 22.613 125.653-12.089 211.129-107.378zM897.351 68.907h-9.031c-36.871 50.163-79.637 93.132-127.951 129.057l-1.614 1.147c-74.738 52.622-146.418 66.773-196.978 38.542-44.444-24.818-71.609-81.636-80.853-168.604h-122.88c14.222 124.8 49.778 167.964 107.662 207.076 39.538 26.738 79.36 27.662 129.849 28.8 53.973 0.853 115.556 2.631 186.667 37.973 44.509 22.678 82.396 51.641 114.231 86.258l0.258 0.284z" />
<glyph unicode="&#xe966;" glyph-name="match" data-tags="match" d="M64 576h320v-64h-320v64zM640 576h320v-64h-320v64zM64 384h320v-64h-320v64zM640 384h320v-64h-320v64zM64 192h320v-64h-320v64zM640 192h320v-64h-320v64zM480 672l96 64-96 64v-128zM480 288l96 64-96 64v-128zM480 96l96 64-96 64v-128zM64 768h320v-64h-320v64zM640 768h320v-64h-320v64zM480 480l96 64-96 64v-128z" />
<glyph unicode="&#xe967;" glyph-name="medical" data-tags="medical" d="M896 704h-192v77.084c0 0.021 0 0.046 0 0.071 0 28.081-22.764 50.844-50.844 50.844-0.025 0-0.050 0-0.075 0h-282.165c-0.021 0-0.046 0-0.071 0-28.081 0-50.844-22.764-50.844-50.844 0-0.025 0-0.050 0-0.075v0.004-77.084h-256v-640h896v640zM384 768h256v-64h-256zM896 128h-768v512h768zM352 352h128v-128h64v128h128v64h-128v128h-64v-128h-128v-64z" />
<glyph unicode="&#xe968;" glyph-name="menu" data-tags="menu" d="M64 480h896v-64h-896v64zM64 768h896v-64h-896v64zM64 192h896v-64h-896v64z" />
<glyph unicode="&#xe969;" glyph-name="message" data-tags="message" d="M896 832h-832v-576h128v-192l192 192h576v576zM896 320h-533.333l-106.667-106.667v106.667h-128v448h768zM192 704h640v-64h-640v64zM192 576h640v-64h-640v64zM192 448h640v-64h-640v64z" />
<glyph unicode="&#xe96a;" glyph-name="minimize" data-tags="minimize" d="M64 64h896v-64h-896v64z" />
<glyph unicode="&#xe96b;" glyph-name="more" data-tags="more" d="M448 832h128v-128h-128v128zM448 512h128v-128h-128v128zM448 192h128v-128h-128v128z" />
<glyph unicode="&#xe96c;" glyph-name="narrow" data-tags="narrow" d="M512 835.982l-448-775.964h896zM512 723.2l345.956-599.182h-691.911zM429.013 393.742c0-0.005 0-0.010 0-0.015 0-7.404-1.76-14.398-4.884-20.584l0.12 0.262-43.804-87.609c-6.277-12.285-9.955-26.797-9.956-42.169v0-71.111h49.067v71.111c0 0.007 0 0.016 0 0.024 0 7.409 1.787 14.4 4.954 20.567l-0.118-0.254 43.52 87.609c6.245 12.291 9.919 26.797 9.956 42.157v71.123h-48.853zM643.556 285.796l-43.804 87.609c-3.005 5.925-4.764 12.918-4.764 20.322 0 0.005 0 0.011 0 0.016v-0.001 71.111h-48.853v-71.111c0.037-15.372 3.71-29.877 10.205-42.713l-0.25 0.544 43.804-87.609c3.048-5.913 4.836-12.904 4.836-20.313 0-0.009 0-0.017 0-0.026v0.001-71.111h48.782v71.111c0 15.371-3.679 29.883-10.203 42.704l0.247-0.535z" />
<glyph unicode="&#xe96d;" glyph-name="navigator" data-tags="navigator" d="M448 384l64-384 384 832-832-384 384-64z" />
<glyph unicode="&#xe96e;" glyph-name="new_file" data-tags="new_file" d="M576 864h-384v-832h640v576zM739.556 608h-163.556v163.556zM768 96h-512v704h256v-256h256z" />
<glyph unicode="&#xe96f;" glyph-name="paperclip" data-tags="paperclip" d="M729.813 33.707c-0.067 0-0.146 0-0.225 0-42.858 0-81.752 16.971-110.328 44.56l0.046-0.045-416.071 398.222c-41.634 40.709-67.45 97.446-67.45 160.213 0 123.712 100.288 224 224 224 59.354 0 113.316-23.085 153.398-60.766l-0.117 0.109 323.556-309.831-44.231-46.222-323.627 309.831c-28.377 26.093-66.396 42.089-108.152 42.089-88.366 0-160-71.634-160-160 0-44.179 17.905-84.175 46.855-113.129v0l416.071-398.222c17.22-16.533 40.648-26.714 66.453-26.714 53.026 0 96.012 42.986 96.012 96.012 0 27.22-11.327 51.795-29.526 69.267l-0.033 0.031-323.698 309.76c-5.741 5.509-13.55 8.901-22.151 8.901-17.68 0-32.012-14.332-32.012-32.012 0-9.079 3.779-17.275 9.85-23.101l0.011-0.011 231.182-221.298-44.302-46.222-231.324 221.298c-18.24 17.512-29.573 42.099-29.573 69.333 0 53.054 43.008 96.062 96.062 96.062 25.82 0 49.26-10.186 66.522-26.76l-0.033 0.031 323.627-309.831c30.407-29.172 49.301-70.141 49.301-115.523 0-87.123-69.633-157.982-156.281-159.958l-0.184-0.003z" />
<glyph unicode="&#xe970;" glyph-name="paste" data-tags="paste" d="M128 704h-64v-704h576v704h-512zM576 64h-448v576h448zM192 576h320v-64h-320v64zM192 448h320v-64h-320v64zM192 320h320v-64h-320v64zM192 192h192v-64h-192v64zM896 896h-576v-128h64v64h128v-64h256v64h128v-640h-192v-64h256v768h-64z" />
<glyph unicode="&#xe971;" glyph-name="people" data-tags="people" d="M826.169 692.338h-123.164c4.505-11.855 7.114-25.563 7.114-39.88 0-0.28-0.001-0.559-0.003-0.838v0.043-215.396c0.001-0.111 0.001-0.241 0.001-0.372 0-30.393-15.389-57.192-38.801-73.029l-0.311-0.198v-253.084c0-25.174 20.408-45.582 45.582-45.582v0h79.858c25.174 0 45.582 20.408 45.582 45.582v0 268.587l33.422 21.333c12.455 8.286 20.552 22.264 20.552 38.134 0 0.119 0 0.237-0.001 0.356v-0.018 184.889c-0.202 38.413-31.389 69.476-69.83 69.476 0 0-0.001 0-0.001 0v0zM820.854 788.891c14.759-35.631-2.161-76.48-37.792-91.239s-76.48 2.161-91.239 37.792c-14.759 35.631 2.161 76.48 37.792 91.239s76.48-2.161 91.239-37.792zM313.529 436.267v215.396c-0.002 0.236-0.003 0.516-0.003 0.795 0 14.317 2.609 28.025 7.377 40.675l-0.263-0.794h-122.809c-38.542 0-69.791-31.224-69.831-69.756v-184.893c0.013-16.004 8.259-30.080 20.731-38.222l0.175-0.107 33.422-21.333v-268.587c0.081-25.113 20.458-45.44 45.582-45.44 0 0 0 0 0 0h79.502c25.174 0 45.582 20.408 45.582 45.582v0 253.084c-23.925 16.007-39.467 42.921-39.467 73.464 0 0.048 0 0.096 0 0.144v-0.007zM334.466 782.38c11.173-36.913-9.694-75.894-46.607-87.067s-75.894 9.694-87.067 46.607c-11.173 36.913 9.694 75.894 46.607 87.067s75.894-9.694 87.067-46.607zM674.916 651.662c-0.041 44.977-36.511 81.422-81.493 81.422h-162.844c-44.983 0-81.453-36.445-81.493-81.418v-215.4c0-0.005 0-0.010 0-0.016 0-18.654 9.628-35.059 24.185-44.517l0.206-0.125 38.969-25.031v-313.387c0-29.377 23.814-53.191 53.191-53.191v0h92.444c0.084 0 0.184-0.001 0.284-0.001 29.377 0 53.191 23.814 53.191 53.191 0 0 0 0.001 0 0.001v0 313.387l38.969 25.031c14.763 9.583 24.391 25.988 24.391 44.642 0 0.006 0 0.011 0 0.017v-0.001zM593.422 814.578c0-44.968-36.454-81.422-81.422-81.422s-81.422 36.454-81.422 81.422c0 44.968 36.454 81.422 81.422 81.422s81.422-36.454 81.422-81.422z" />
<glyph unicode="&#xe972;" glyph-name="pin_empty" data-tags="pin_empty" d="M512 832c164.121-0.202 297.113-133.194 297.316-297.296v-0.019c0-194.062-226.204-395.307-297.316-453.689-71.111 58.382-297.316 259.627-297.316 453.689 0.202 164.121 133.194 297.113 297.296 297.316h0.019zM512 384c0.021 0 0.046 0 0.071 0 83.26 0 150.756 67.496 150.756 150.756s-67.496 150.756-150.756 150.756c-83.26 0-150.756-67.496-150.756-150.756 0-0.025 0-0.050 0-0.075v0.004c0.081-83.188 67.496-150.604 150.677-150.684h0.008zM512 896c-199.451-0.243-361.073-161.864-361.316-361.292v-0.024c0-260.693 329.956-511.147 344.036-521.671l17.28-13.013 17.28 13.013c14.222 10.524 344.036 260.978 344.036 521.671-0.243 199.451-161.864 361.073-361.292 361.316h-0.024zM512 448c-0.021 0-0.046 0-0.071 0-47.914 0-86.756 38.842-86.756 86.756s38.842 86.756 86.756 86.756c47.914 0 86.756-38.842 86.756-86.756 0-0.025 0-0.050 0-0.075v0.004c-0.081-47.842-38.843-86.604-86.677-86.684h-0.008z" />
<glyph unicode="&#xe973;" glyph-name="pin_map" data-tags="pin_map" d="M512 247.68c9.031 7.111 232.249 248.462 232.249 416.071 0 128.268-103.981 232.249-232.249 232.249s-232.249-103.981-232.249-232.249v0c0-167.609 223.218-409.316 232.249-416.071zM423.68 663.751c0 48.778 39.542 88.32 88.32 88.32s88.32-39.542 88.32-88.32c0-48.778-39.542-88.32-88.32-88.32v0c-48.762 0.040-88.28 39.558-88.32 88.316v0.004zM529.209 663.751c0 9.504-7.705 17.209-17.209 17.209s-17.209-7.705-17.209-17.209c0-9.504 7.705-17.209 17.209-17.209v0c9.488 0.040 17.169 7.721 17.209 17.205v0.004zM832 448h-95.147c-16.892-23.998-33.464-44.859-51.126-64.73l0.637 0.73h97.351l91.449-320h-726.329l91.449 320h97.351c-17.025 19.141-33.597 40.002-48.986 61.76l-1.503 2.24h-95.147l-128-448h896z" />
<glyph unicode="&#xe974;" glyph-name="pin" data-tags="pin" d="M512 896c-199.451-0.243-361.073-161.864-361.316-361.292v-0.024c0-260.693 329.956-511.147 344.036-521.671l17.28-13.013 17.28 13.013c14.222 10.524 344.036 260.978 344.036 521.671-0.243 199.451-161.864 361.073-361.292 361.316h-0.024zM512 397.369c-75.877 0-137.387 61.51-137.387 137.387s61.51 137.387 137.387 137.387c75.877 0 137.387-61.51 137.387-137.387 0-0.025 0-0.050 0-0.075v0.004c-0.121-75.813-61.568-137.235-137.379-137.316h-0.008z" />
<glyph unicode="&#xe975;" glyph-name="planification" data-tags="planification" d="M64 768h576v-64h-576v64zM320 576h640v-64h-640v64zM448 384h384v-64h-384v64zM192 192h512v-64h-512v64z" />
<glyph unicode="&#xe976;" glyph-name="play" data-tags="play" d="M202.667 782.933l558.222-334.933-558.222-334.933v669.867zM138.667 896v-896l746.667 448-746.667 448z" />
<glyph unicode="&#xe977;" glyph-name="print" data-tags="print" d="M832 704v192h-640v-192h-128v-448h192v-256h512v256h192v448zM256 832h512v-128h-512zM320 64v320h384v-320zM896 320h-128v64h64v64h-640v-64h64v-64h-128v320h768zM704 576h128v-64h-128v64zM576 576h64v-64h-64v64zM384 320h256v-64h-256v64zM384 192h256v-64h-256v64z" />
<glyph unicode="&#xe978;" glyph-name="puzzle" data-tags="puzzle" d="M384 0c-6.254 0.014-12.408 0.375-18.462 1.066l0.755-0.070c-80.412 9.219-142.284 76.892-142.284 159.016 0 36.195 12.019 69.583 32.283 96.391l-0.292-0.403h-192v640h275.2v-33.422c-0.184-23.522-9.587-44.812-24.768-60.467l0.022 0.022c-16.389-17.189-26.473-40.515-26.473-66.197 0-49.142 36.925-89.661 84.543-95.323l0.455-0.044c3.278-0.397 7.073-0.623 10.922-0.623 53.059 0 96.071 43.013 96.071 96.071 0 25.811-10.178 49.244-26.74 66.505l0.032-0.033c-15.142 15.806-24.464 37.294-24.464 60.958 0 0.194 0.001 0.389 0.002 0.583v-0.030 32h275.2v-192c26.412 19.989 59.814 32.019 96.025 32.019 82.008 0 149.606-61.698 158.908-141.208l0.071-0.749c0.636-5.356 0.999-11.56 0.999-17.849 0-88.326-71.603-159.929-159.929-159.929-0.026 0-0.052 0-0.079 0h0.004c-0.211-0.001-0.46-0.002-0.709-0.002-35.926 0-69.069 11.915-95.694 32.008l0.403-0.291v-192h-192c19.962-26.409 31.973-59.796 31.973-95.988 0-47.312-20.526-89.83-53.158-119.134l-0.148-0.131c-28.212-25.218-65.628-40.66-106.649-40.747h-0.018zM128 320h211.2v-33.422c-0.184-23.522-9.587-44.812-24.768-60.467l0.022 0.022c-16.389-17.189-26.473-40.515-26.473-66.197 0-49.142 36.925-89.661 84.543-95.323l0.455-0.044c3.278-0.397 7.073-0.623 10.922-0.623 53.059 0 96.071 43.013 96.071 96.071 0 25.811-10.178 49.244-26.74 66.505l0.032-0.033c-15.142 15.806-24.464 37.294-24.464 60.958 0 0.194 0.001 0.389 0.002 0.583v-0.030 32h211.2v211.2h32c0.164 0.001 0.359 0.002 0.553 0.002 23.664 0 45.152-9.322 60.99-24.494l-0.032 0.030c17.228-16.53 40.661-26.709 66.472-26.709 53.059 0 96.071 43.013 96.071 96.071 0 3.848-0.226 7.644-0.666 11.374l0.043-0.452c-5.707 48.073-46.225 84.998-95.367 84.998-25.682 0-49.008-10.084-66.235-26.51l0.038 0.036c-15.632-15.16-36.923-24.562-60.409-24.746h-33.458v211.2h-128c19.962-26.409 31.973-59.796 31.973-95.988 0-47.312-20.526-89.83-53.158-119.134l-0.148-0.131c-28.174-25.279-65.611-40.736-106.658-40.736-88.366 0-160 71.634-160 160 0 36.196 12.019 69.584 32.284 96.392l-0.292-0.403h-128z" />
<glyph unicode="&#xe979;" glyph-name="radar" data-tags="radar" d="M918.044 637.938c-10.545 22.107-21.272 40.748-33.231 58.491l1.017-1.602-48.569-32.142c9.707-14.163 19.176-30.473 27.437-47.479l1.008-2.299c22.854-48.352 36.196-105.039 36.196-164.842 0-0.023 0-0.046 0-0.069v0.004c-0.023-215.399-174.643-390.005-390.044-390.005-215.416 0-390.044 174.629-390.044 390.044s174.629 390.044 390.044 390.044c97.49 0 186.626-35.767 255.002-94.894l-0.495 0.419-77.724-77.653c-6.24 5.175-13.194 10.366-20.406 15.201l-0.928 0.586c-1.209 0.853-2.489 1.564-3.769 2.347-6.329 4.053-12.729 7.893-19.342 11.449l-4.48 2.204c-6.827 3.413-13.511 6.258-20.338 9.387l-3.84 1.564c-7.111 2.844-14.649 5.404-22.116 7.68l-2.631 0.853c-8.178 2.347-16.356 4.338-24.747 5.973h-0.711c-15.978 3.317-34.389 5.279-53.235 5.404l-0.098 0.001c-0.234 0.001-0.511 0.001-0.789 0.001-67.141 0-128.733-23.755-176.831-63.319l0.482 0.385c-7.752-6.351-14.705-12.651-21.336-19.274l0.003 0.003c-6.613-6.613-12.871-13.511-18.702-20.622-39.506-47.998-63.459-110.091-63.459-177.778s23.954-129.78 63.847-178.263l-0.387 0.485c5.831-7.111 12.089-14.222 18.702-20.693s14.222-13.156 21.333-19.2v0c47.881-39.183 109.718-62.929 177.102-62.929s129.221 23.745 177.602 63.325l-0.5-0.396q11.093 9.031 21.333 19.2c50.703 50.713 82.062 120.767 82.062 198.145 0 0.115 0 0.229 0 0.344v-0.018c-0.036 43.046-9.679 83.83-26.9 120.338l0.731-1.724-1.209 2.347v0.711l-25.884-13.298-26.311-12.516c0.282-0.642 0.567-1.179 0.886-1.692l-0.033 0.057c13.177-27.546 20.875-59.874 20.875-94 0-61.532-25.025-117.219-65.452-157.439l-0.010-0.010c-5.404-5.404-11.022-10.382-16.782-15.147l-2.347-1.707c-5.12-4.124-10.311-8.036-15.716-11.591v0c-34.457-22.866-76.776-36.484-122.276-36.484s-87.818 13.617-123.103 36.999l0.828-0.516c-5.333 3.556-10.596 7.111-15.716 11.591l-2.347 1.707c-5.76 4.764-11.378 9.742-16.782 15.147-40.239 40.25-65.126 95.85-65.126 157.262s24.887 117.012 65.127 157.263v0c5.12 5.049 10.382 9.813 15.858 14.222 2.631 2.133 5.404 4.053 8.107 6.044s5.689 4.409 8.604 6.471 7.111 4.622 11.093 7.111l6.4 3.84c4.267 2.347 8.604 4.409 12.942 6.4 1.778 0.853 3.484 1.778 5.333 2.56 4.551 1.991 9.173 3.698 14.222 5.404l5.049 1.778c4.693 1.564 9.458 2.916 14.222 4.124l5.476 1.351q7.111 1.636 14.222 2.773l6.329 0.924c4.551 0.64 9.102 1.138 13.653 1.422 2.347 0 4.764 0 7.111 0.356 4.48 0 8.96 0 13.44 0h6.542c4.764 0 9.6-0.427 14.222-0.996h2.133c25.939-3.309 49.487-10.569 71.072-21.207l-1.312 0.584 4.764-2.276c3.84-1.991 7.538-4.196 11.236-6.4 2.418-1.422 4.907-2.844 7.111-4.338s6.187-4.267 9.173-6.4l5.618-4.196-78.222-78.222-1.493 0.782-3.769 1.991-5.049 2.418-4.836 2.062-4.836 0.782c-1.92 0.64-3.911 1.351-5.902 1.92l-2.276 0.569c-6.888 1.942-14.889 3.264-23.128 3.687l-0.268 0.011h-12.444c-2.418 0-4.907 0-7.111-0.569h-0.924c-6.124-0.829-11.515-1.973-16.755-3.473l0.826 0.202-1.28-0.356c-1.991-0.569-3.84-1.28-5.76-1.92l-4.124-1.493-4.693-2.062c-1.707-0.711-3.342-1.564-5.049-2.418l-3.698-1.991c-1.991-1.067-3.911-2.276-5.831-3.484l-2.773-1.849c-2.276-1.564-4.48-3.2-6.684-4.978l-1.493-1.138c-2.805-2.33-5.332-4.654-7.738-7.098l-0.013-0.013c-9.824-9.779-17.847-21.356-23.538-34.198l-0.284-0.718c-0.154-0.415-0.322-0.766-0.516-1.101l0.018 0.034c-0.996-2.56-1.92-5.12-2.773-7.751-0.356-0.924-0.711-1.849-0.996-2.773-0.513-1.529-1.029-3.487-1.435-5.485l-0.059-0.346c-0.498-1.707-0.996-3.413-1.351-5.12s0-1.849-0.427-2.773c-1.13-5.89-1.777-12.665-1.777-19.591s0.647-13.701 1.883-20.267l-0.106 0.676c0-0.924 0-1.849 0.427-2.773s0.853-3.413 1.351-5.191c0.479-2.341 0.994-4.273 1.606-6.163l-0.113 0.403c0-0.996 0.64-1.849 0.996-2.844 0.853-2.56 1.778-5.191 2.773-7.68 0.216-0.327 0.407-0.702 0.556-1.099l0.013-0.039c5.959-13.555 13.959-25.131 23.75-34.915l0.001-0.001c0.924-0.924 1.991-1.778 2.987-2.702s3.413-3.2 5.191-4.693 2.987-2.276 4.48-3.342 2.916-2.276 4.48-3.271l4.267-2.631c1.778-1.067 3.556-2.204 5.404-3.129 0.917-0.538 2.016-1.086 3.151-1.564l0.191-0.072c2.276-1.138 4.551-2.204 7.111-3.2l1.849-0.711c12.128-4.904 26.194-7.75 40.924-7.75s28.796 2.846 41.678 8.017l-0.753-0.267 1.849 0.711c2.347 0.996 4.622 2.062 7.111 3.2 1.327 0.55 2.425 1.098 3.482 1.71l-0.139-0.075c1.849 0.924 3.627 2.062 5.404 3.129l4.267 2.631c1.564 0.996 2.987 2.133 4.48 3.271s2.987 2.133 4.48 3.342 3.484 3.129 5.191 4.693 2.062 1.778 2.987 2.702v0c20.472 20.366 33.142 48.558 33.142 79.71 0 20.859-5.68 40.39-15.579 57.133l0.286-0.523 79.644 79.858 198.4 198.4-41.173 41.173-39.396-39.467c-78.075 68.564-181.094 110.398-293.884 110.398-246.52 0-446.364-199.844-446.364-446.364s199.844-446.364 446.364-446.364c246.52 0 446.364 199.844 446.364 446.364 0 68.664-15.504 133.708-43.203 191.82l1.157-2.697z" />
<glyph unicode="&#xe97a;" glyph-name="reduce" data-tags="reduce" d="M192 576v-64h256v256h-64v-146.773l-210.773 210.773-45.227-45.227 210.773-210.773h-146.773zM643.2 512h192v64h-149.973l210.773 210.773-45.227 45.227-207.573-207.502v143.502h-64v-256h64zM640 274.773l210.773-210.773 45.227 45.227-210.773 210.773h146.773v64h-256v-256h64v146.773zM173.227 64l210.773 210.773v-146.773h64v256h-256v-64h146.773l-210.773-210.773 45.227-45.227z" />
<glyph unicode="&#xe97b;" glyph-name="refresh" data-tags="refresh" d="M273.636 505.458l-50.631-50.347c3.767 156.724 131.709 282.334 288.988 282.334 79.849 0 152.136-32.375 204.451-84.716l0.001-0.001 45.298 45.298c-63.9 63.874-152.164 103.38-249.654 103.38-192.852 0-349.597-154.589-353.079-346.609l-0.005-0.326-50.987 50.987-45.227-45.227 128-128 128 128zM961.209 435.769l-128 128-128-128 45.298-45.227 50.489 50.347c-3.767-156.724-131.709-282.334-288.988-282.334-79.849 0-152.136 32.375-204.451 84.716l-0.001 0.001-45.298-45.298c63.901-63.878 152.166-103.385 249.659-103.385 192.754 0 349.438 154.432 353.073 346.316l0.005 0.34 50.987-50.987z" />
<glyph unicode="&#xe97c;" glyph-name="remove" data-tags="remove" d="M574.222 479.076h-510.222v-62.222h896v62.222h-385.778z" />
<glyph unicode="&#xe97d;" glyph-name="restart" data-tags="restart" d="M402.276 207.644l328.178 196.907-328.178 196.907v-393.813zM847.787 404.551c-0.040-185.419-150.362-335.716-335.787-335.716-185.45 0-335.787 150.337-335.787 335.787s150.337 335.787 335.787 335.787h106.667l-46.507-46.507 45.298-45.227 123.733 123.733-123.733 123.591-45.298-45.298 46.507-46.293h-106.667c-0.021 0-0.046 0-0.071 0-220.835 0-399.858-179.022-399.858-399.858s179.022-399.858 399.858-399.858c220.835 0 399.858 179.022 399.858 399.858v0z" />
<glyph unicode="&#xe97e;" glyph-name="road_block" data-tags="road_block" d="M768 576h-64v64h-64v64c0 35.346-28.654 64-64 64v0h-128c-35.346 0-64-28.654-64-64v0-64h-64v-64h-256v-256h115.2l-51.2-256h64l25.6 128h588.8l25.6-128h64l-51.2 256h115.2v256zM711.111 504.889l113.778-113.778h-64l-113.778 113.778zM519.111 504.889l113.778-113.778h-64l-113.778 113.778zM448 689.778c0 7.855 6.368 14.222 14.222 14.222v0h99.556c7.855 0 14.222-6.368 14.222-14.222v0-49.778h-128zM327.111 504.889l113.778-113.778h-64l-113.778 113.778zM135.111 504.889l113.778-113.778h-64l-49.778 49.778zM230.4 256l12.8 64h537.6l12.8-64zM888.889 455.111l-49.778 49.778h49.778z" />
<glyph unicode="&#xe97f;" glyph-name="road_in" data-tags="road_in" d="M896 576c0 70.692-57.308 128-128 128s-128-57.308-128-128c0-70.692 57.308-128 128-128v0c70.692 0 128 57.308 128 128v0zM768 512c-35.346 0-64 28.654-64 64s28.654 64 64 64c35.346 0 64-28.654 64-64v0c0-35.346-28.654-64-64-64v0zM425.387 681.387l73.387-73.387h-114.773c-123.663-0.121-223.879-100.337-224-223.988v-384.012h64v384c0.081 88.333 71.667 159.919 159.992 160h114.781l-73.387-73.387 45.227-45.227 150.613 150.613-150.613 150.613zM736 64h64v-64h-64v64zM736 192h64v-64h-64v64zM736 384h64v64h-64v-64zM736 320h64v-64h-64v64zM736 896h64v-64h-64v64zM800 768h-64v-64h64v64z" />
<glyph unicode="&#xe980;" glyph-name="road_off" data-tags="road_off" d="M448 576c0 70.692-57.308 128-128 128s-128-57.308-128-128c0-70.692 57.308-128 128-128v0c70.692 0 128 57.308 128 128v0zM256 576c0 35.346 28.654 64 64 64s64-28.654 64-64c0-35.346-28.654-64-64-64v0c-35.346 0-64 28.654-64 64v0zM704 813.227l-150.613-150.613 45.227-45.227 73.387 73.387v-50.773c0.001-0.232 0.001-0.507 0.001-0.782 0-76.26-31.018-145.275-81.127-195.117l-202.963-202.963c-14.763-14.716-28.163-30.779-40.006-47.998l-0.741-1.14h-59.164v-64h24.889c-7.624-18.198-14.118-39.647-18.43-61.876l-0.343-2.124h-6.116v-64h64c-0.001 0.232-0.001 0.507-0.001 0.782 0 76.26 31.018 145.275 81.127 195.117l202.963 202.963c61.716 61.374 99.912 146.344 99.912 240.235 0 0.317 0 0.635-0.001 0.952v-0.049 50.773l73.387-73.387 45.227 45.227zM288 384h64v64h-64v-64zM288 320h64v-64h-64v64zM288 896h64v-64h-64v64zM352 768h-64v-64h64v64z" />
<glyph unicode="&#xe981;" glyph-name="route" data-tags="route" d="M853.333 320c-58.91 0-106.667-47.756-106.667-106.667v0c0-58.88 106.667-213.333 106.667-213.333s106.667 154.453 106.667 213.333c0 58.91-47.756 106.667-106.667 106.667v0zM896.569 212.764c0-23.878-19.357-43.236-43.236-43.236s-43.236 19.357-43.236 43.236v0c0 23.878 19.357 43.236 43.236 43.236s43.236-19.357 43.236-43.236v0zM704 96h-352c-106.039 0-192 85.961-192 192s85.961 192 192 192v0h320c70.692 0 128 57.308 128 128s-57.308 128-128 128v0h-352v64h352c106.039 0 192-85.961 192-192s-85.961-192-192-192v0h-320c-70.692 0-128-57.308-128-128s57.308-128 128-128v0h352zM170.667 896c-58.91 0-106.667-47.756-106.667-106.667v0c0-58.88 106.667-213.333 106.667-213.333s106.667 154.453 106.667 213.333c0 58.91-47.756 106.667-106.667 106.667v0zM213.902 788.764c0-23.878-19.357-43.236-43.236-43.236s-43.236 19.357-43.236 43.236v0c0 23.878 19.357 43.236 43.236 43.236s43.236-19.357 43.236-43.236v0z" />
<glyph unicode="&#xe982;" glyph-name="satellite" data-tags="satellite" d="M728.889 544h71.111c0 106.039-85.961 192-192 192v0-71.111c66.765 0 120.889-54.124 120.889-120.889v0zM856.889 544h71.111c0 176.731-143.269 320-320 320v0-71.111c137.458 0 248.889-111.431 248.889-248.889v0zM878.791 271.716l-226.347 226.062c11.602 11.602 18.778 27.63 18.778 45.333 0 35.408-28.703 64.111-64.111 64.111-17.704 0-33.732-7.176-45.333-18.778v0l-226.062 226.347c-69.083-69.773-111.766-165.796-111.766-271.789 0-63.156 15.154-122.772 42.024-175.411l-1.013 2.187-168.96-337.778h512l-43.449 130.418c12.777-1.514 27.604-2.392 42.631-2.418h0.035c0.368-0.001 0.804-0.002 1.24-0.002 105.525 0 201.080 42.684 270.343 111.727l-0.010-0.010zM211.058 103.111l98.702 197.404c44.744-54.791 103.636-96.435 171.133-119.528l2.662-0.792 25.742-77.084zM517.333 243.982c-72.878 21.904-132.881 67.878-172.211 128.504l-0.731 1.202c-30.977 48.080-49.385 106.798-49.385 169.816 0 60.984 17.239 117.941 47.11 166.264l-0.783-1.36 176.853-176.64 254.222-254.436c-46.606-29.151-103.225-46.438-163.882-46.438-0.46 0-0.92 0.001-1.38 0.003h0.071c-32.059 0.046-62.985 4.824-92.139 13.673l2.255-0.588z" />
<glyph unicode="&#xe983;" glyph-name="save" data-tags="save" d="M704 896h-640v-896h896v640zM512 832v-192h-256v192zM256 64v320h512v-320zM896 64h-64v384h-640v-384h-64v768h64v-256h384v256h101.476l218.524-218.524zM320 320h384v-64h-384v64zM320 192h384v-64h-384v64z" />
<glyph unicode="&#xe984;" glyph-name="sawtooth" data-tags="sawtooth" d="M906.524 127.076l-49.28 149.333c10.66 11.402 17.206 26.767 17.206 43.661 0 31.374-22.576 57.475-52.368 62.946l-0.393 0.060-49.778 149.902c10.374 11.335 16.73 26.498 16.73 43.145 0 31-22.041 56.853-51.307 62.741l-0.409 0.069-49.209 150.4c10.063 11.257 16.213 26.197 16.213 42.573 0 35.346-28.654 64-64 64s-64-28.654-64-64c0-16.376 6.151-31.316 16.268-42.635l-0.054 0.062-39.040-116.836c21.895-18.994 37.249-45.015 42.55-74.525l0.116-0.782 44.231 133.191 37.191-112.498c-9.689-11.154-15.594-25.821-15.594-41.867 0-30.388 21.179-55.83 49.581-62.369l0.431-0.083 50.276-152.32c-9.342-11.051-15.021-25.46-15.021-41.195 0-30.104 20.785-55.354 48.787-62.181l0.438-0.090 50.133-153.173c-9.066-10.962-14.566-25.163-14.566-40.648 0-35.346 28.654-64 64-64s64 28.654 64 64c0 31.608-22.913 57.864-53.036 63.064l-0.381 0.054zM648.462 127.36l-48 147.982c11.202 11.514 18.11 27.255 18.11 44.61 0 31.468-22.711 57.632-52.637 62.994l-0.388 0.058-48.711 150.329c10.16 11.282 16.375 26.292 16.375 42.754 0 30.567-21.429 56.129-50.083 62.483l-0.425 0.079-49.778 152.533c9.241 11.019 14.854 25.352 14.854 40.996 0 35.346-28.654 64-64 64s-64-28.654-64-64c0-15.417 5.452-29.562 14.532-40.61l-0.089 0.111-51.413-153.742c-27.761-7.403-47.876-32.32-47.876-61.936 0-15.145 5.26-29.061 14.054-40.021l-0.097 0.126-51.911-154.311c-27.572-7.533-47.505-32.357-47.505-61.838 0-14.934 5.115-28.673 13.688-39.561l-0.104 0.137-51.911-154.88c-27.377-7.664-47.122-32.393-47.122-61.734 0-35.346 28.654-64 64-64s64 28.654 64 64c0 17.735-7.214 33.785-18.867 45.376l-0.003 0.003 49.778 147.413c31.107 4.71 54.674 31.261 54.674 63.317 0 17.504-7.027 33.368-18.415 44.922l0.008-0.008 49.778 147.84c30.874 4.924 54.187 31.361 54.187 63.243 0 17.331-6.889 33.053-18.077 44.577l0.015-0.016 38.969 116.338 37.76-118.258c-10.16-11.282-16.375-26.292-16.375-42.754 0-30.567 21.429-56.129 50.083-62.483l0.425-0.079 49.778-152.533c-9.162-10.993-14.724-25.267-14.724-40.84 0-29.688 20.214-54.654 47.629-61.887l0.446-0.1 50.347-155.307c-8.193-10.645-13.131-24.164-13.131-38.837 0-35.346 28.654-64 64-64s64 28.654 64 64c0 32.371-24.033 59.129-55.23 63.404l-0.333 0.037z" />
<glyph unicode="&#xe985;" glyph-name="search" data-tags="search" d="M961.28 43.947l-165.547 165.618c62.324 72.405 100.275 167.34 100.275 271.139 0 230.143-186.568 416.711-416.711 416.711s-416.711-186.568-416.711-416.711c0-230.143 186.568-416.711 416.711-416.711 103.799 0 198.734 37.951 271.686 100.735l-0.547-0.46 165.618-165.547zM127.147 480.427c0 194.64 157.787 352.427 352.427 352.427s352.427-157.787 352.427-352.427c0-194.64-157.787-352.427-352.427-352.427v0c-194.558 0.202-352.224 157.868-352.427 352.407v0.019zM799.147 480.427c-0.242 176.398-143.175 319.331-319.55 319.573h-0.024v-64c141.052-0.242 255.331-114.522 255.573-255.55v-0.023z" />
<glyph unicode="&#xe986;" glyph-name="settings" data-tags="settings" d="M378.453 768c-13.558 37.593-48.924 63.983-90.453 63.983s-76.895-26.39-90.242-63.315l-0.211-0.668h-133.547v-64h133.547c13.558-37.593 48.924-63.983 90.453-63.983s76.895 26.39 90.242 63.315l0.211 0.668h581.547v64zM288 711.111c-13.746 0-24.889 11.143-24.889 24.889s11.143 24.889 24.889 24.889c13.746 0 24.889-11.143 24.889-24.889v0c0-13.746-11.143-24.889-24.889-24.889v0zM736 544c-41.526-0.025-76.883-26.413-90.242-63.332l-0.211-0.668h-581.547v-64h581.547c13.558-37.593 48.924-63.983 90.453-63.983s76.895 26.39 90.242 63.315l0.211 0.668h133.547v64h-133.547c-13.571 37.587-48.927 63.975-90.45 64h-0.003zM736 423.111c-13.746 0-24.889 11.143-24.889 24.889s11.143 24.889 24.889 24.889c13.746 0 24.889-11.143 24.889-24.889v0c0-13.746-11.143-24.889-24.889-24.889v0zM480 256c-41.526-0.025-76.883-26.413-90.242-63.332l-0.211-0.668h-325.547v-64h325.547c13.558-37.593 48.924-63.983 90.453-63.983s76.895 26.39 90.242 63.315l0.211 0.668h389.547v64h-389.547c-13.571 37.587-48.927 63.975-90.45 64h-0.003zM480 135.111c-13.746 0-24.889 11.143-24.889 24.889s11.143 24.889 24.889 24.889c13.746 0 24.889-11.143 24.889-24.889v0c0-13.746-11.143-24.889-24.889-24.889v0z" />
<glyph unicode="&#xe987;" glyph-name="shift_a" data-tags="shift_a" d="M755.627 609.636h61.369l-67.271-67.271 50.276-50.276 152.889 153.102-152.889 153.173-50.276-50.276 67.271-67.342h-61.369c-0.326 0.001-0.713 0.002-1.099 0.002-122.339 0-228.302-70.118-279.893-172.358l-0.821-1.795-101.476-203.022c-40.58-80.705-122.734-135.112-217.596-135.112-0.226 0-0.453 0-0.679 0.001h-82.952v-71.111h82.987c0.272-0.001 0.593-0.001 0.914-0.001 122.463 0 228.52 70.244 280.078 172.638l0.821 1.799 101.476 203.022c40.594 80.545 122.641 134.828 217.367 134.828 0.307 0 0.614-0.001 0.921-0.002h-0.048zM64 673.636h384v-64h-384v64zM448 161.636h512v-64h-512v64z" />
<glyph unicode="&#xe988;" glyph-name="shift_b" data-tags="shift_b" d="M268.373 609.636h-61.369l67.271-67.271-50.276-50.276-152.889 153.102 152.889 153.173 50.276-50.276-67.271-67.342h61.369c0.326 0.001 0.713 0.002 1.099 0.002 122.339 0 228.302-70.118 279.893-172.358l0.821-1.795 101.476-203.022c40.58-80.705 122.734-135.112 217.596-135.112 0.226 0 0.453 0 0.679 0.001h82.952v-71.111h-82.987c-0.272-0.001-0.593-0.001-0.914-0.001-122.463 0-228.52 70.244-280.078 172.638l-0.821 1.799-101.476 203.022c-40.594 80.545-122.641 134.828-217.367 134.828-0.307 0-0.614-0.001-0.921-0.002h0.048zM960 609.636h-384v64h384v-64zM576 97.636h-512v64h512v-64z" />
<glyph unicode="&#xe989;" glyph-name="shift_c" data-tags="shift_c" d="M755.627 286.364h61.369l-67.271 67.271 50.276 50.276 152.889-153.102-152.889-153.173-50.276 50.276 67.271 67.342h-61.369c-0.326-0.001-0.713-0.002-1.099-0.002-122.339 0-228.302 70.118-279.893 172.358l-0.821 1.795-101.476 203.022c-40.58 80.705-122.734 135.112-217.596 135.112-0.226 0-0.453 0-0.679-0.001h-82.952v71.111h82.987c0.272 0.001 0.593 0.001 0.914 0.001 122.463 0 228.52-70.244 280.078-172.638l0.821-1.799 101.476-203.022c40.594-80.545 122.641-134.828 217.367-134.828 0.307 0 0.614 0.001 0.921 0.002h-0.048zM64 286.364h384v-64h-384v64zM448 798.364h512v-64h-512v64z" />
<glyph unicode="&#xe98a;" glyph-name="shift_d" data-tags="shift_d" d="M268.373 286.364h-61.369l67.271 67.271-50.276 50.276-152.889-153.102 152.889-153.173 50.276 50.276-67.271 67.342h61.369c0.326-0.001 0.713-0.002 1.099-0.002 122.339 0 228.302 70.118 279.893 172.358l0.821 1.795 101.476 203.022c40.58 80.705 122.734 135.112 217.596 135.112 0.226 0 0.453 0 0.679-0.001h82.952v71.111h-82.987c-0.272 0.001-0.593 0.001-0.914 0.001-122.463 0-228.52-70.244-280.078-172.638l-0.821-1.799-101.476-203.022c-40.594-80.545-122.641-134.828-217.367-134.828-0.307 0-0.614 0.001-0.921 0.002h0.048zM960 222.364h-384v64h384v-64zM576 734.364h-512v64h512v-64z" />
<glyph unicode="&#xe98b;" glyph-name="shift_e" data-tags="shift_e" d="M416 388.693c0.121 123.663 100.337 223.879 223.988 224h178.785l-73.387-73.387 45.227-45.227 150.613 150.613-150.613 150.613-45.227-45.227 73.387-73.387h-178.773c-159.058 0-288-128.942-288-288s128.942-288 288-288v0h256v64h-256c-123.663 0.121-223.879 100.337-224 223.988v0.012zM128 164.693h256v-64h-256v64zM128 676.693h256v-64h-256v64z" />
<glyph unicode="&#xe98c;" glyph-name="shift_f" data-tags="shift_f" d="M653.227 388.693c-0.121 123.663-100.337 223.879-223.988 224h-178.714l73.387-73.387-45.298-45.227-150.613 150.613 150.613 150.613 45.298-45.227-73.387-73.387h178.702c159.058 0 288-128.942 288-288s-128.942-288-288-288v0h-256v64h256c123.663 0.121 223.879 100.337 224 223.988v0.012zM941.298 100.693h-256v64h256v-64zM941.298 612.693h-256v64h256v-64z" />
<glyph unicode="&#xe98d;" glyph-name="shift_failed" data-tags="shift_failed" d="M320 562.276v45.724c0 35.346-28.654 64-64 64v0h-128c-35.346 0-64-28.654-64-64v0-169.173c0.001-14.68 7.58-27.589 19.038-35.030l0.162-0.099 30.578-19.698v-246.187c0-23.093 18.72-41.813 41.813-41.813v0h72.818c23.093 0 41.813 18.72 41.813 41.813v0 245.689l-64.498 64.498zM256 736c0-35.346-28.654-64-64-64s-64 28.654-64 64c0 35.346 28.654 64 64 64s64-28.654 64-64zM896 672h-128c-35.346 0-64-28.654-64-64v0-169.173c0.001-14.68 7.58-27.589 19.038-35.030l0.162-0.099 30.578-19.698v-63.502l64.498-64.498-64.498-64.498v-53.689c0-23.093 18.72-41.813 41.813-41.813v0h72.818c23.093 0 41.813 18.72 41.813 41.813v0 246.187l30.578 19.698c11.62 7.54 19.199 20.449 19.2 35.129v0 169.173c0 35.346-28.654 64-64 64v0zM896 736c0-35.346-28.654-64-64-64s-64 28.654-64 64c0 35.346 28.654 64 64 64s64-28.654 64-64zM444.089 605.724l67.911 67.911 67.911-67.911 45.227 45.227-67.911 67.911 67.911 67.911-45.227 45.227-67.911-67.911-67.911 67.911-45.227-45.227 67.911-67.911-67.911-67.911 45.227-45.227zM595.698 359.396l79.004-79.004h-247.822v-48.782h247.822l-79.004-79.004 34.489-34.418 137.813 137.813-137.813 137.813-34.489-34.418zM428.587 551.396l-79.004-79.004h247.822v-48.782h-247.822l79.004-79.004-34.418-34.418-137.884 137.813 137.884 137.813 34.418-34.418z" />
<glyph unicode="&#xe98e;" glyph-name="shift_g" data-tags="shift_g" d="M416 507.307c0.121-123.663 100.337-223.879 223.988-224h178.785l-73.387 73.387 45.227 45.227 150.613-150.613-150.613-150.613-45.227 45.227 73.387 73.387h-178.773c-159.058 0-288 128.942-288 288s128.942 288 288 288v0h256v-64h-256c-123.663-0.121-223.879-100.337-224-223.988v-0.012zM128 795.307h256v-64h-256v64zM128 283.307h256v-64h-256v64z" />
<glyph unicode="&#xe98f;" glyph-name="shift_h" data-tags="shift_h" d="M653.227 507.307c-0.121-123.663-100.337-223.879-223.988-224h-178.714l73.387 73.387-45.298 45.227-150.613-150.613 150.613-150.613 45.298 45.227-73.387 73.387h178.702c159.058 0 288 128.942 288 288s-128.942 288-288 288v0h-256v-64h256c123.663-0.121 223.879-100.337 224-223.988v-0.012zM941.298 731.307h-256v64h256v-64zM941.298 219.307h-256v64h256v-64z" />
<glyph unicode="&#xe990;" glyph-name="shift" data-tags="shift" d="M320 562.276v45.724c0 35.346-28.654 64-64 64v0h-128c-35.346 0-64-28.654-64-64v0-169.173c0.001-14.68 7.58-27.589 19.038-35.030l0.162-0.099 30.578-19.698v-246.187c0-23.093 18.72-41.813 41.813-41.813v0h72.818c23.093 0 41.813 18.72 41.813 41.813v0 245.689l-64.498 64.498zM256 736c0-35.346-28.654-64-64-64s-64 28.654-64 64c0 35.346 28.654 64 64 64s64-28.654 64-64zM896 672h-128c-35.346 0-64-28.654-64-64v0-169.173c0.001-14.68 7.58-27.589 19.038-35.030l0.162-0.099 30.578-19.698v-63.502l64.498-64.498-64.498-64.498v-53.689c0-23.093 18.72-41.813 41.813-41.813v0h72.818c23.093 0 41.813 18.72 41.813 41.813v0 246.187l30.578 19.698c11.62 7.54 19.199 20.449 19.2 35.129v0 169.173c0 35.346-28.654 64-64 64v0zM896 736c0-35.346-28.654-64-64-64s-64 28.654-64 64c0 35.346 28.654 64 64 64s64-28.654 64-64zM595.556 359.396l79.004-79.004h-247.822v-48.782h247.822l-79.004-79.004 34.418-34.418 137.884 137.813-137.884 137.813-34.418-34.418zM428.444 551.396l-79.004-79.004h247.822v-48.782h-247.822l79.004-79.004-34.418-34.418-137.884 137.813 137.884 137.813 34.418-34.418z" />
<glyph unicode="&#xe991;" glyph-name="sign" data-tags="sign" d="M960 672h-128v224h-64v-224h-512v224h-64v-224h-128v-448h128v-224h64v224h512v-224h64v224h128zM896 288h-768v320h768zM192 544h128v-64h-128v64zM384 544h320v-64h-320v64zM768 544h64v-64h-64v64zM192 416h192v-64h-192v64zM448 416h192v-64h-192v64zM704 416h128v-64h-128v64z" />
<glyph unicode="&#xe992;" glyph-name="sort_asc" data-tags="sort_asc" d="M246.329 896l-125.938-413.724h111.929l20.551 87.822h115.342l20.551-87.822h116.124l-126.293 413.724zM272.711 654.933l6.684 28.444c10.169 39.396 20.338 89.031 29.298 130.987h2.489c10.169-41.316 20.338-91.591 30.578-130.987l6.684-28.444zM463.858 347.236v66.204h-287.502v-91.591h152.676l-169.173-255.716v-66.133h305.28v91.591h-170.453l169.173 255.644zM914.773 226.276l-103.822-103.751v773.476h-64v-773.476l-103.751 103.751-45.227-45.227 180.978-181.049 45.298 45.227 135.751 135.822-45.227 45.227z" />
<glyph unicode="&#xe993;" glyph-name="sort_desc" data-tags="sort_desc" d="M246.329 413.44l-125.938-413.44h111.929l20.551 87.751h115.342l20.551-87.751h116.124l-126.293 413.44zM272.711 172.373l6.684 28.444c10.169 39.467 20.338 89.031 29.298 131.058h2.489c10.169-41.387 20.338-91.591 30.578-131.058l6.684-28.444zM465.138 574.151h-170.453l169.173 255.716v66.133h-287.502v-91.591h152.676l-169.173-255.644v-66.204h305.28v91.591zM914.773 226.276l-103.822-103.751v773.476h-64v-773.476l-103.751 103.751-45.227-45.227 180.978-181.049 45.298 45.227 135.751 135.822-45.227 45.227z" />
<glyph unicode="&#xe994;" glyph-name="square_alt" data-tags="square_alt" d="M896 832v-768h-768v768h768zM960 896h-896v-896h896v896z" />
<glyph unicode="&#xe995;" glyph-name="square_check" data-tags="square_check" d="M896 832v-768h-768v768h768zM960 896h-896v-896h896v896zM768 704h-512v-512h512v512z" />
<glyph unicode="&#xe996;" glyph-name="square" data-tags="square" d="M64 896h896v-896h-896v896z" />
<glyph unicode="&#xe997;" glyph-name="star_full" data-tags="star_full" d="M512 874.098l-138.453-280.533-309.547-45.013 224-218.311-52.907-308.338 276.907 145.564 276.907-145.564-52.907 308.338 224 218.311-309.547 45.013-138.453 280.533z" />
<glyph unicode="&#xe998;" glyph-name="star" data-tags="star" d="M512 729.458l81.067-164.196 14.862-30.222 214.542-31.147-155.236-151.467 5.689-33.138 31.076-180.338-162.062 85.333-29.938 15.502-192-100.836 30.933 180.48 5.689 33.138-24.107 23.467-131.129 128 214.542 31.147 14.862 30.222 81.209 164.053zM512 874.098l-138.453-280.533-309.547-45.013 224-218.311-52.907-308.338 276.907 145.564 276.907-145.564-52.907 308.338 224 218.311-309.547 45.013-138.453 280.533z" />
<glyph unicode="&#xe999;" glyph-name="start_point" data-tags="start_point" d="M602.453 192c-13.577 37.605-48.961 64-90.51 64-53.019 0-96-42.981-96-96s42.981-96 96-96c41.549 0 76.933 26.395 90.298 63.332l0.211 0.668h69.547v64h-69.547zM512 135.111c-13.746 0-24.889 11.143-24.889 24.889s11.143 24.889 24.889 24.889c13.746 0 24.889-11.143 24.889-24.889v0c0-13.746-11.143-24.889-24.889-24.889v0zM720 192h64v-64h-64v64zM832 192h64v-64h-64v64zM272.498 320l157.013 515.556h164.978l157.013-515.556h-144.356l-25.316 109.44h-144.356l-25.031-109.44zM470.756 570.667l-8.747-35.556h95.218l-8.747 35.556q-9.529 37.191-19.058 80.853t-18.987 82.489h-3.2q-8.747-39.68-17.849-82.844t-18.631-80.498z" />
<glyph unicode="&#xe99a;" glyph-name="stats" data-tags="stats" d="M640 585.671h64v-315.449h-64v315.449zM480 654.222h64v-384h-64v384zM320 517.049h64v-246.827h-64v246.827zM512 832c28.090-0.026 55.465-3.028 81.843-8.71l-2.555 0.461 18.489 61.44c-29.369 6.832-63.103 10.769-97.75 10.809h-0.028c-0.18 0-0.394 0-0.608 0-112.247 0-214.805-41.485-293.178-109.959l0.523 0.448 45.511-45.44c66.218 56.545 152.827 90.951 247.471 90.951 0.098 0 0.197 0 0.295 0h-0.015zM896 448c-0.006-32.239-3.999-63.542-11.513-93.447l0.561 2.639 61.084-20.267c8.807 33.218 13.865 71.355 13.865 110.673 0 190.362-118.56 353.033-285.867 418.2l-3.056 1.048-18.489-61.582c143.628-57.794 243.212-195.873 243.413-357.237v-0.025zM512 64c-211.932 0.192-383.663 172.041-383.663 384 0 94.68 34.266 181.356 91.072 248.305l-0.458-0.554-45.44 45.511c-68.084-78.155-109.591-181.015-109.591-293.57 0-247.424 200.576-448 448-448 185.547 0 344.748 112.799 412.771 273.564l1.105 2.94-61.013 20.338c-60.403-137.791-195.527-232.34-352.757-232.533h-0.025z" />
<glyph unicode="&#xe99b;" glyph-name="status" data-tags="status" d="M64 896h256v-256h-256v256zM64 576h256v-256h-256v256zM384 640h256v256h-256zM448 832h128v-128h-128zM704 896h256v-256h-256v256zM384 320h256v256h-256zM448 512h128v-128h-128zM64 0h256v256h-256zM128 192h128v-128h-128zM384 256h256v-256h-256v256zM704 256h256v-256h-256v256z" />
<glyph unicode="&#xe99c;" glyph-name="stop" data-tags="stop" d="M544 475.449l194.276 194.276-226.276 226.276-226.276-226.276 194.276-194.276v-411.449h-96v-64h256v64h-96zM512 805.476l135.751-135.751-135.751-135.751-135.751 135.751z" />
<glyph unicode="&#xe99d;" glyph-name="switch_on" data-tags="switch_on" d="M615.396 814.080v-71.822c140.98-45.342 241.209-175.33 241.209-328.727 0-190.32-154.285-344.604-344.604-344.604s-344.604 154.285-344.604 344.604c0 153.398 100.229 283.385 238.77 328.048l2.439 0.68v71.822c-179.761-47.557-310.116-208.743-310.116-400.376 0-228.376 185.135-413.511 413.511-413.511s413.511 185.135 413.511 413.511c0 191.633-130.355 352.819-307.231 399.725l-2.885 0.651zM546.489 756.409v139.591h-68.978v-482.489h68.978v342.898z" />
</font>
</defs>
</svg>
